<svg width="50" height="50" viewBox="0 0 50 50" fill="none" xmlns="http://www.w3.org/2000/svg">
<path d="M37.625 33.25C37.6251 34.3659 37.1987 35.4397 36.4331 36.2516C35.6676 37.0635 34.6207 37.5522 33.5067 37.6177L33.25 37.625H31.7917C30.6757 37.625 29.602 37.1987 28.79 36.4331C27.9781 35.6675 27.4894 34.6207 27.424 33.5067L27.4167 33.25V28.875C27.4166 27.7591 27.843 26.6853 28.6085 25.8734C29.3741 25.0614 30.421 24.5727 31.535 24.5073L31.7917 24.5H33.25C33.7619 24.5 34.2533 24.5875 34.7083 24.7494V24.5C34.7096 21.822 33.6586 19.2508 31.7817 17.3405C29.9049 15.4303 27.3526 14.3341 24.675 14.2882C21.9975 14.2423 19.4091 15.2503 17.4678 17.0951C15.5266 18.9399 14.388 21.4735 14.2975 24.15L14.2917 24.5V24.7479C14.6582 24.6186 15.0427 24.5394 15.4452 24.5102L15.75 24.5H17.2083C18.3243 24.4999 19.398 24.9263 20.21 25.6919C21.0219 26.4574 21.5106 27.5043 21.576 28.6183L21.5833 28.875V33.25C21.5834 34.3659 21.157 35.4397 20.3915 36.2516C19.6259 37.0635 18.579 37.5522 17.465 37.6177L17.2083 37.625H15.75C14.6341 37.625 13.5603 37.1987 12.7484 36.4331C11.9364 35.6675 11.4478 34.6207 11.3823 33.5067L11.375 33.25V24.5C11.3763 21.0533 12.7332 17.7455 15.1528 15.2909C17.5724 12.8363 20.8605 11.4319 24.3067 11.3812C27.753 11.3304 31.081 12.6373 33.5718 15.0196C36.0626 17.4019 37.5164 20.6684 37.6192 24.1135L37.625 24.5V33.25Z" fill="#D7D8FF"/>
</svg>
