<svg width="50" height="50" viewBox="0 0 50 50" fill="none" xmlns="http://www.w3.org/2000/svg">
<path d="M37.8473 10.9498C37.6624 10.7633 37.4117 10.6586 37.1503 10.6586C36.8889 10.6586 36.6382 10.7633 36.4532 10.9498L33.8887 13.5392C32.0478 11.9435 29.8057 10.8931 27.4103 10.504C25.0149 10.115 22.5596 10.4026 20.3161 11.3349C17.92 12.341 15.8723 14.0403 14.4307 16.2188C12.9891 18.3974 12.2181 20.9579 12.2146 23.5779V32.3419C12.2168 33.1898 12.4488 34.021 12.8853 34.7454C12.7923 34.8369 12.7183 34.9464 12.6678 35.0672C12.6173 35.1881 12.5913 35.318 12.5913 35.4491C12.5913 35.5803 12.6173 35.7102 12.6678 35.8311C12.7183 35.9519 12.7923 36.0614 12.8853 36.1529C12.9745 36.2486 13.0827 36.3241 13.2028 36.3744C13.323 36.4248 13.4523 36.4488 13.5824 36.445C13.712 36.4457 13.8404 36.4201 13.9601 36.37C14.0798 36.3198 14.1884 36.246 14.2794 36.1529L14.9633 35.4624L20.7632 29.6065L20.8816 29.487L34.6778 15.6239L37.9131 12.3574C38.0004 12.2606 38.0679 12.1474 38.1118 12.0243C38.1558 11.9012 38.1752 11.7706 38.1691 11.6398C38.163 11.5091 38.1315 11.3809 38.0762 11.2625C38.021 11.1441 37.9432 11.0378 37.8473 10.9498ZM20.487 27.0702C20.2446 26.6564 19.9383 26.2844 19.5796 25.9681C18.8343 25.3384 17.9094 24.9653 16.9395 24.9032C15.9696 24.8411 15.0055 25.0932 14.1874 25.6229V23.5912C14.1886 21.4499 14.7946 19.3534 15.9342 17.5475C17.0738 15.7416 18.6997 14.3011 20.6213 13.3952C22.543 12.4892 24.6806 12.1552 26.7836 12.4324C28.8866 12.7095 30.8677 13.5863 32.4946 14.96L20.487 27.0702ZM38.5181 23.5912V32.3552C38.5251 32.4216 38.5251 32.488 38.5181 32.5544C38.4194 33.6721 37.9097 34.712 37.0893 35.469C36.2689 36.226 35.1974 36.6453 34.0859 36.6442C32.9477 36.6462 31.8518 36.2086 31.0228 35.421C30.1939 34.6334 29.6946 33.5556 29.6275 32.4083V28.9027C29.682 27.7367 30.1816 26.6374 31.0216 25.8353C31.7713 25.1584 32.7206 24.7489 33.7233 24.6697C34.726 24.5905 35.7267 24.8461 36.5716 25.3971V23.5912C36.5688 21.8024 36.1546 20.0387 35.3617 18.439C35.2467 18.2045 35.2278 17.9337 35.309 17.6853C35.3902 17.4368 35.565 17.2306 35.7957 17.1112C36.029 17.0019 36.2948 16.9864 36.539 17.0678C36.7833 17.1492 36.9877 17.3213 37.1108 17.5494C38.0368 19.4262 38.5185 21.4944 38.5181 23.5912Z" fill="#D7D8FF"/>
</svg>
