<svg width="758" height="52" viewBox="0 0 758 52" fill="none" xmlns="http://www.w3.org/2000/svg">
<path d="M8.22656 18.2344C5.74219 18.2344 3.87891 17.5195 2.63672 16.0898C1.39453 14.6602 0.773438 12.5156 0.773438 9.65625C0.773438 6.94531 1.41797 4.84766 2.70703 3.36328C3.99609 1.87109 5.80469 1.125 8.13281 1.125C9.29688 1.125 10.3164 1.30859 11.1914 1.67578C12.0664 2.03516 12.7109 2.54688 13.125 3.21094L11.3789 4.94531C11.0195 4.41406 10.5664 4.00391 10.0195 3.71484C9.48047 3.42578 8.89844 3.28125 8.27344 3.28125C6.69531 3.28125 5.46875 3.82812 4.59375 4.92188C3.71875 6.00781 3.28125 7.54688 3.28125 9.53906C3.28125 11.7188 3.71875 13.3555 4.59375 14.4492C5.46875 15.5352 6.77344 16.0781 8.50781 16.0781C9.25 16.0781 9.90234 16.0078 10.4648 15.8672C11.0352 15.7188 11.5 15.5938 11.8594 15.4922L12.7734 17.5312C12.4453 17.6328 11.8672 17.7773 11.0391 17.9648C10.2188 18.1445 9.28125 18.2344 8.22656 18.2344ZM10.4531 17.5312V9.67969H12.7734V17.5312H10.4531ZM7.14844 11.9062V9.67969H12.7031V11.9062H7.14844ZM22.1719 18.2344C20.0547 18.2344 18.418 17.6797 17.2617 16.5703C16.1133 15.4531 15.5391 13.8516 15.5391 11.7656C15.5391 9.73438 16.0273 8.15625 17.0039 7.03125C17.9805 5.90625 19.3594 5.34375 21.1406 5.34375C22.8203 5.34375 24.1172 5.85156 25.0312 6.86719C25.9531 7.88281 26.4141 9.35938 26.4141 11.2969C26.4141 11.8672 26.3906 12.3984 26.3438 12.8906H17.625V10.9922H24.1641C24.1641 9.875 23.8984 9.01953 23.3672 8.42578C22.8359 7.82422 22.1016 7.52344 21.1641 7.52344C20.1094 7.52344 19.2891 7.88281 18.7031 8.60156C18.125 9.32031 17.8359 10.3359 17.8359 11.6484C17.8359 13.0859 18.2344 14.1797 19.0312 14.9297C19.8359 15.6797 20.9766 16.0547 22.4531 16.0547C22.9688 16.0547 23.4766 16.0273 23.9766 15.9727C24.4766 15.9102 24.9844 15.8281 25.5 15.7266L25.8047 17.9062C25.0703 18.0469 24.3984 18.1367 23.7891 18.1758C23.1797 18.2148 22.6406 18.2344 22.1719 18.2344ZM37.4062 18.2344C35.5234 18.2344 34.1602 17.8438 33.3164 17.0625C32.4805 16.2812 32.0625 15.0312 32.0625 13.3125V11.2031H34.5469V13.1953C34.5469 14.1797 34.7852 14.8945 35.2617 15.3398C35.7461 15.7852 36.5391 16.0078 37.6406 16.0078C38.0312 16.0078 38.4453 15.9883 38.8828 15.9492C39.3203 15.9023 39.8203 15.8438 40.3828 15.7734L40.6641 17.9531C40.1172 18.0469 39.582 18.1172 39.0586 18.1641C38.543 18.2109 37.9922 18.2344 37.4062 18.2344ZM32.0625 12.1406V1.82812H34.5469V12.1406H32.0625ZM28.9453 7.75781V5.57812H40.1953V7.75781H28.9453ZM62.8594 18V6.28125H65.3438V18H62.8594ZM58.125 18V15.8203H63.0938V18H58.125ZM65.1094 18V15.8203H69.1641V18H65.1094ZM58.8281 7.75781V5.57812H65.3438V7.75781H58.8281ZM64.0195 3.60938C63.543 3.60938 63.1328 3.44141 62.7891 3.10547C62.4531 2.76172 62.2852 2.35156 62.2852 1.875C62.2852 1.39062 62.4531 0.980469 62.7891 0.644531C63.1328 0.308594 63.543 0.140625 64.0195 0.140625C64.5039 0.140625 64.9141 0.308594 65.25 0.644531C65.5859 0.980469 65.7539 1.39062 65.7539 1.875C65.7539 2.35156 65.5859 2.76172 65.25 3.10547C64.9141 3.44141 64.5039 3.60938 64.0195 3.60938ZM79.9219 18V9.91406C79.9219 9.16406 79.7266 8.58594 79.3359 8.17969C78.9453 7.77344 78.3984 7.57031 77.6953 7.57031C75.7422 7.57031 74.7656 8.71875 74.7656 11.0156L74.0391 7.82812H75C75.0703 6.99219 75.375 6.37109 75.9141 5.96484C76.4531 5.55078 77.2422 5.34375 78.2812 5.34375C79.5938 5.34375 80.6094 5.74219 81.3281 6.53906C82.0469 7.33594 82.4062 8.46094 82.4062 9.91406V18H79.9219ZM72.2812 18V5.57812H74.5312L74.7656 8.20312V18H72.2812ZM107.719 18.2344C105.836 18.2344 104.473 17.8438 103.629 17.0625C102.793 16.2812 102.375 15.0312 102.375 13.3125V11.2031H104.859V13.1953C104.859 14.1797 105.098 14.8945 105.574 15.3398C106.059 15.7852 106.852 16.0078 107.953 16.0078C108.344 16.0078 108.758 15.9883 109.195 15.9492C109.633 15.9023 110.133 15.8438 110.695 15.7734L110.977 17.9531C110.43 18.0469 109.895 18.1172 109.371 18.1641C108.855 18.2109 108.305 18.2344 107.719 18.2344ZM102.375 12.1406V1.82812H104.859V12.1406H102.375ZM99.2578 7.75781V5.57812H110.508V7.75781H99.2578ZM119.531 18.2344C117.812 18.2344 116.477 17.6719 115.523 16.5469C114.57 15.4219 114.094 13.8359 114.094 11.7891C114.094 9.73438 114.57 8.14844 115.523 7.03125C116.477 5.90625 117.812 5.34375 119.531 5.34375C121.258 5.34375 122.594 5.90625 123.539 7.03125C124.492 8.14844 124.969 9.73438 124.969 11.7891C124.969 13.8359 124.492 15.4219 123.539 16.5469C122.594 17.6719 121.258 18.2344 119.531 18.2344ZM119.531 16.0078C120.445 16.0078 121.148 15.6406 121.641 14.9062C122.141 14.1719 122.391 13.1328 122.391 11.7891C122.391 10.4375 122.141 9.39844 121.641 8.67188C121.148 7.9375 120.445 7.57031 119.531 7.57031C118.617 7.57031 117.91 7.9375 117.41 8.67188C116.918 9.39844 116.672 10.4375 116.672 11.7891C116.672 13.1328 116.918 14.1719 117.41 14.9062C117.91 15.6406 118.617 16.0078 119.531 16.0078ZM132.375 18.2344C131.07 18.2344 130.059 17.8477 129.34 17.0742C128.629 16.293 128.273 15.1953 128.273 13.7812V5.57812H130.758V13.7812C130.758 14.4922 130.961 15.043 131.367 15.4336C131.773 15.8164 132.344 16.0078 133.078 16.0078C133.984 16.0078 134.668 15.7227 135.129 15.1523C135.59 14.5742 135.82 13.6094 135.82 12.2578L136.453 15.6094H135.633C135.438 16.4531 135.055 17.1016 134.484 17.5547C133.914 18.0078 133.211 18.2344 132.375 18.2344ZM136.031 18.1172L135.82 15.1406V12.9609H138.305V15.75L140.016 16.0078V18L136.031 18.1172ZM135.82 14.4844V5.57812H138.305V13.7812L135.82 14.4844ZM148.852 18.2344C146.734 18.2344 145.098 17.6797 143.941 16.5703C142.793 15.4531 142.219 13.8516 142.219 11.7656C142.219 9.73438 142.762 8.15625 143.848 7.03125C144.941 5.90625 146.5 5.34375 148.523 5.34375C149.734 5.34375 150.77 5.57031 151.629 6.02344C152.496 6.46875 153.113 7.10156 153.48 7.92188L151.57 9.36328C151.219 8.79297 150.77 8.35156 150.223 8.03906C149.676 7.72656 149.078 7.57031 148.43 7.57031C147.258 7.57031 146.348 7.92578 145.699 8.63672C145.051 9.33984 144.727 10.3438 144.727 11.6484C144.727 13.0625 145.105 14.1445 145.863 14.8945C146.629 15.6367 147.719 16.0078 149.133 16.0078C149.711 16.0078 150.289 15.9805 150.867 15.9258C151.445 15.8711 152.008 15.7969 152.555 15.7031L152.836 17.8828C152.195 18.0234 151.531 18.1172 150.844 18.1641C150.164 18.2109 149.5 18.2344 148.852 18.2344ZM164.297 18V9.91406C164.297 9.125 164.102 8.51953 163.711 8.09766C163.32 7.66797 162.773 7.45312 162.07 7.45312C160.117 7.45312 159.141 8.64062 159.141 11.0156L158.414 7.82812H159.375C159.445 6.99219 159.75 6.37109 160.289 5.96484C160.828 5.55078 161.617 5.34375 162.656 5.34375C163.969 5.34375 164.984 5.74219 165.703 6.53906C166.422 7.33594 166.781 8.46094 166.781 9.91406V18H164.297ZM156.656 18V0.421875H159.141V18H156.656ZM191.25 18L189.797 8.13281H189.609L188.59 5.57812H190.863L192.328 16.125H192.539L193.594 5.57812H196.055L194.297 18H191.25ZM185.039 18L183.633 5.57812H185.977L186.914 16.125H187.125L188.59 5.57812H190.863L189.82 8.13281H189.656L188.203 18H185.039ZM203.484 18V6.28125H205.969V18H203.484ZM198.75 18V15.8203H203.719V18H198.75ZM205.734 18V15.8203H209.789V18H205.734ZM199.453 7.75781V5.57812H205.969V7.75781H199.453ZM204.645 3.60938C204.168 3.60938 203.758 3.44141 203.414 3.10547C203.078 2.76172 202.91 2.35156 202.91 1.875C202.91 1.39062 203.078 0.980469 203.414 0.644531C203.758 0.308594 204.168 0.140625 204.645 0.140625C205.129 0.140625 205.539 0.308594 205.875 0.644531C206.211 0.980469 206.379 1.39062 206.379 1.875C206.379 2.35156 206.211 2.76172 205.875 3.10547C205.539 3.44141 205.129 3.60938 204.645 3.60938ZM220.219 18.2344C218.336 18.2344 216.973 17.8438 216.129 17.0625C215.293 16.2812 214.875 15.0312 214.875 13.3125V11.2031H217.359V13.1953C217.359 14.1797 217.598 14.8945 218.074 15.3398C218.559 15.7852 219.352 16.0078 220.453 16.0078C220.844 16.0078 221.258 15.9883 221.695 15.9492C222.133 15.9023 222.633 15.8438 223.195 15.7734L223.477 17.9531C222.93 18.0469 222.395 18.1172 221.871 18.1641C221.355 18.2109 220.805 18.2344 220.219 18.2344ZM214.875 12.1406V1.82812H217.359V12.1406H214.875ZM211.758 7.75781V5.57812H223.008V7.75781H211.758ZM234.609 18V9.91406C234.609 9.125 234.414 8.51953 234.023 8.09766C233.633 7.66797 233.086 7.45312 232.383 7.45312C230.43 7.45312 229.453 8.64062 229.453 11.0156L228.727 7.82812H229.688C229.758 6.99219 230.062 6.37109 230.602 5.96484C231.141 5.55078 231.93 5.34375 232.969 5.34375C234.281 5.34375 235.297 5.74219 236.016 6.53906C236.734 7.33594 237.094 8.46094 237.094 9.91406V18H234.609ZM226.969 18V0.421875H229.453V18H226.969ZM254.004 23.625L253.887 21.3984L255.832 21.1641C256.652 21.0625 257.352 20.8398 257.93 20.4961C258.516 20.1523 259.016 19.6406 259.43 18.9609C259.844 18.2891 260.207 17.4062 260.52 16.3125L263.613 5.57812H266.191L262.605 16.8984C262.137 18.3828 261.609 19.5781 261.023 20.4844C260.445 21.3906 259.758 22.0703 258.961 22.5234C258.172 22.9766 257.223 23.2656 256.113 23.3906L254.004 23.625ZM258.715 18L253.77 5.57812H256.348L260.402 16.125H260.777V18H258.715ZM274.219 18.2344C272.5 18.2344 271.164 17.6719 270.211 16.5469C269.258 15.4219 268.781 13.8359 268.781 11.7891C268.781 9.73438 269.258 8.14844 270.211 7.03125C271.164 5.90625 272.5 5.34375 274.219 5.34375C275.945 5.34375 277.281 5.90625 278.227 7.03125C279.18 8.14844 279.656 9.73438 279.656 11.7891C279.656 13.8359 279.18 15.4219 278.227 16.5469C277.281 17.6719 275.945 18.2344 274.219 18.2344ZM274.219 16.0078C275.133 16.0078 275.836 15.6406 276.328 14.9062C276.828 14.1719 277.078 13.1328 277.078 11.7891C277.078 10.4375 276.828 9.39844 276.328 8.67188C275.836 7.9375 275.133 7.57031 274.219 7.57031C273.305 7.57031 272.598 7.9375 272.098 8.67188C271.605 9.39844 271.359 10.4375 271.359 11.7891C271.359 13.1328 271.605 14.1719 272.098 14.9062C272.598 15.6406 273.305 16.0078 274.219 16.0078ZM287.062 18.2344C285.758 18.2344 284.746 17.8477 284.027 17.0742C283.316 16.293 282.961 15.1953 282.961 13.7812V5.57812H285.445V13.7812C285.445 14.4922 285.648 15.043 286.055 15.4336C286.461 15.8164 287.031 16.0078 287.766 16.0078C288.672 16.0078 289.355 15.7227 289.816 15.1523C290.277 14.5742 290.508 13.6094 290.508 12.2578L291.141 15.6094H290.32C290.125 16.4531 289.742 17.1016 289.172 17.5547C288.602 18.0078 287.898 18.2344 287.062 18.2344ZM290.719 18.1172L290.508 15.1406V12.9609H292.992V15.75L294.703 16.0078V18L290.719 18.1172ZM290.508 14.4844V5.57812H292.992V13.7812L290.508 14.4844ZM301.5 12.6562L300.773 8.76562H301.734C301.875 6.48438 303.016 5.34375 305.156 5.34375C306.438 5.34375 307.367 5.71094 307.945 6.44531C308.523 7.17969 308.812 8.36719 308.812 10.0078H306.352C306.352 9.10156 306.215 8.44922 305.941 8.05078C305.676 7.65234 305.242 7.45312 304.641 7.45312C303.586 7.45312 302.797 7.90625 302.273 8.8125C301.758 9.71094 301.5 10.9922 301.5 12.6562ZM296.25 18V15.8203H304.547V18H296.25ZM299.016 18V5.57812H301.031L301.5 9.14062V18H299.016ZM296.719 7.75781V5.57812H300.867L301.102 7.75781H296.719ZM325.406 23.3906V5.57812H327.656L327.891 8.20312V23.3906H325.406ZM331.418 18.2344C330.465 18.2344 329.695 18.0156 329.109 17.5781C328.531 17.1406 328.203 16.5312 328.125 15.75H327.047L327.891 12.2109C327.891 13.4922 328.141 14.4648 328.641 15.1289C329.148 15.793 329.891 16.125 330.867 16.125C331.867 16.125 332.625 15.7695 333.141 15.0586C333.656 14.3477 333.914 13.2969 333.914 11.9062C333.914 10.4375 333.656 9.32812 333.141 8.57812C332.625 7.82812 331.867 7.45312 330.867 7.45312C329.891 7.45312 329.148 7.78516 328.641 8.44922C328.141 9.11328 327.891 10.0859 327.891 11.3672L327.047 7.82812H328.008C328.117 7.04688 328.469 6.4375 329.062 6C329.664 5.5625 330.449 5.34375 331.418 5.34375C333.051 5.34375 334.285 5.89844 335.121 7.00781C335.957 8.11719 336.375 9.75 336.375 11.9062C336.375 13.9844 335.957 15.5586 335.121 16.6289C334.285 17.6992 333.051 18.2344 331.418 18.2344ZM344.531 18.2344C342.812 18.2344 341.477 17.6719 340.523 16.5469C339.57 15.4219 339.094 13.8359 339.094 11.7891C339.094 9.73438 339.57 8.14844 340.523 7.03125C341.477 5.90625 342.812 5.34375 344.531 5.34375C346.258 5.34375 347.594 5.90625 348.539 7.03125C349.492 8.14844 349.969 9.73438 349.969 11.7891C349.969 13.8359 349.492 15.4219 348.539 16.5469C347.594 17.6719 346.258 18.2344 344.531 18.2344ZM344.531 16.0078C345.445 16.0078 346.148 15.6406 346.641 14.9062C347.141 14.1719 347.391 13.1328 347.391 11.7891C347.391 10.4375 347.141 9.39844 346.641 8.67188C346.148 7.9375 345.445 7.57031 344.531 7.57031C343.617 7.57031 342.91 7.9375 342.41 8.67188C341.918 9.39844 341.672 10.4375 341.672 11.7891C341.672 13.1328 341.918 14.1719 342.41 14.9062C342.91 15.6406 343.617 16.0078 344.531 16.0078ZM360.844 18.2344C358.961 18.2344 357.598 17.8438 356.754 17.0625C355.918 16.2812 355.5 15.0312 355.5 13.3125V11.2031H357.984V13.1953C357.984 14.1797 358.223 14.8945 358.699 15.3398C359.184 15.7852 359.977 16.0078 361.078 16.0078C361.469 16.0078 361.883 15.9883 362.32 15.9492C362.758 15.9023 363.258 15.8438 363.82 15.7734L364.102 17.9531C363.555 18.0469 363.02 18.1172 362.496 18.1641C361.98 18.2109 361.43 18.2344 360.844 18.2344ZM355.5 12.1406V1.82812H357.984V12.1406H355.5ZM352.383 7.75781V5.57812H363.633V7.75781H352.383ZM373.734 18.2344C371.617 18.2344 369.98 17.6797 368.824 16.5703C367.676 15.4531 367.102 13.8516 367.102 11.7656C367.102 9.73438 367.59 8.15625 368.566 7.03125C369.543 5.90625 370.922 5.34375 372.703 5.34375C374.383 5.34375 375.68 5.85156 376.594 6.86719C377.516 7.88281 377.977 9.35938 377.977 11.2969C377.977 11.8672 377.953 12.3984 377.906 12.8906H369.188V10.9922H375.727C375.727 9.875 375.461 9.01953 374.93 8.42578C374.398 7.82422 373.664 7.52344 372.727 7.52344C371.672 7.52344 370.852 7.88281 370.266 8.60156C369.688 9.32031 369.398 10.3359 369.398 11.6484C369.398 13.0859 369.797 14.1797 370.594 14.9297C371.398 15.6797 372.539 16.0547 374.016 16.0547C374.531 16.0547 375.039 16.0273 375.539 15.9727C376.039 15.9102 376.547 15.8281 377.062 15.7266L377.367 17.9062C376.633 18.0469 375.961 18.1367 375.352 18.1758C374.742 18.2148 374.203 18.2344 373.734 18.2344ZM389.297 18V9.91406C389.297 9.16406 389.102 8.58594 388.711 8.17969C388.32 7.77344 387.773 7.57031 387.07 7.57031C385.117 7.57031 384.141 8.71875 384.141 11.0156L383.414 7.82812H384.375C384.445 6.99219 384.75 6.37109 385.289 5.96484C385.828 5.55078 386.617 5.34375 387.656 5.34375C388.969 5.34375 389.984 5.74219 390.703 6.53906C391.422 7.33594 391.781 8.46094 391.781 9.91406V18H389.297ZM381.656 18V5.57812H383.906L384.141 8.20312V18H381.656ZM403.031 18.2344C401.148 18.2344 399.785 17.8438 398.941 17.0625C398.105 16.2812 397.688 15.0312 397.688 13.3125V11.2031H400.172V13.1953C400.172 14.1797 400.41 14.8945 400.887 15.3398C401.371 15.7852 402.164 16.0078 403.266 16.0078C403.656 16.0078 404.07 15.9883 404.508 15.9492C404.945 15.9023 405.445 15.8438 406.008 15.7734L406.289 17.9531C405.742 18.0469 405.207 18.1172 404.684 18.1641C404.168 18.2109 403.617 18.2344 403.031 18.2344ZM397.688 12.1406V1.82812H400.172V12.1406H397.688ZM394.57 7.75781V5.57812H405.82V7.75781H394.57ZM414.422 18V6.28125H416.906V18H414.422ZM409.688 18V15.8203H414.656V18H409.688ZM416.672 18V15.8203H420.727V18H416.672ZM410.391 7.75781V5.57812H416.906V7.75781H410.391ZM415.582 3.60938C415.105 3.60938 414.695 3.44141 414.352 3.10547C414.016 2.76172 413.848 2.35156 413.848 1.875C413.848 1.39062 414.016 0.980469 414.352 0.644531C414.695 0.308594 415.105 0.140625 415.582 0.140625C416.066 0.140625 416.477 0.308594 416.812 0.644531C417.148 0.980469 417.316 1.39062 417.316 1.875C417.316 2.35156 417.148 2.76172 416.812 3.10547C416.477 3.44141 416.066 3.60938 415.582 3.60938ZM431.461 18.1172L431.297 14.4375L430.969 13.4062V10.1953C430.969 9.36719 430.676 8.76172 430.09 8.37891C429.512 7.98828 428.648 7.77734 427.5 7.74609L424.523 7.66406L424.758 5.46094L427.266 5.49609C429.32 5.52734 430.844 5.97266 431.836 6.83203C432.836 7.68359 433.336 8.92969 433.336 10.5703V15.75L435.445 16.0078V18L431.461 18.1172ZM427.078 18.2344C425.781 18.2344 424.777 17.9219 424.066 17.2969C423.355 16.6719 423 15.7891 423 14.6484C423 13.3359 423.488 12.3281 424.465 11.625C425.449 10.9219 426.836 10.5703 428.625 10.5703C429.367 10.5703 430.027 10.6172 430.605 10.7109C431.191 10.7969 431.711 10.9297 432.164 11.1094L431.648 12.7969C431.125 12.6797 430.613 12.6133 430.113 12.5977C429.613 12.5742 429.102 12.5625 428.578 12.5625C426.422 12.5625 425.344 13.2188 425.344 14.5312C425.344 15.0781 425.527 15.5 425.895 15.7969C426.27 16.0938 426.797 16.2422 427.477 16.2422C428.25 16.2422 428.895 16.1094 429.41 15.8438C429.934 15.5781 430.324 15.2383 430.582 14.8242C430.84 14.4102 430.969 13.9844 430.969 13.5469V12.1875L431.695 15.375H430.711L431.109 15C431.109 15.7188 430.941 16.3203 430.605 16.8047C430.277 17.2812 429.812 17.6406 429.211 17.8828C428.609 18.1172 427.898 18.2344 427.078 18.2344ZM444.82 18.2344C443.383 18.2344 442.344 17.8438 441.703 17.0625C441.062 16.2812 440.742 15.0312 440.742 13.3125V0.421875H443.227V13.1953C443.227 13.8516 443.289 14.3867 443.414 14.8008C443.539 15.2148 443.781 15.5195 444.141 15.7148C444.508 15.9102 445.047 16.0078 445.758 16.0078C446.406 16.0078 447.234 15.8594 448.242 15.5625L448.523 17.7422C447.891 17.9141 447.281 18.0391 446.695 18.1172C446.117 18.1953 445.492 18.2344 444.82 18.2344ZM437.086 2.60156V0.421875H440.953V2.60156H437.086ZM468.773 18V6.63281C468.773 2.33594 470.734 0.1875 474.656 0.1875C475.547 0.1875 476.406 0.265625 477.234 0.421875L476.977 2.57812C476.484 2.51562 476.051 2.47266 475.676 2.44922C475.301 2.42578 474.938 2.41406 474.586 2.41406C472.367 2.41406 471.258 3.78125 471.258 6.51562V18H468.773ZM464.859 10.5V8.32031H476.344V10.5H464.859ZM483.938 18.2344C482.633 18.2344 481.621 17.8477 480.902 17.0742C480.191 16.293 479.836 15.1953 479.836 13.7812V5.57812H482.32V13.7812C482.32 14.4922 482.523 15.043 482.93 15.4336C483.336 15.8164 483.906 16.0078 484.641 16.0078C485.547 16.0078 486.23 15.7227 486.691 15.1523C487.152 14.5742 487.383 13.6094 487.383 12.2578L488.016 15.6094H487.195C487 16.4531 486.617 17.1016 486.047 17.5547C485.477 18.0078 484.773 18.2344 483.938 18.2344ZM487.594 18.1172L487.383 15.1406V12.9609H489.867V15.75L491.578 16.0078V18L487.594 18.1172ZM487.383 14.4844V5.57812H489.867V13.7812L487.383 14.4844ZM501.469 18.2344C499.586 18.2344 498.223 17.8438 497.379 17.0625C496.543 16.2812 496.125 15.0312 496.125 13.3125V11.2031H498.609V13.1953C498.609 14.1797 498.848 14.8945 499.324 15.3398C499.809 15.7852 500.602 16.0078 501.703 16.0078C502.094 16.0078 502.508 15.9883 502.945 15.9492C503.383 15.9023 503.883 15.8438 504.445 15.7734L504.727 17.9531C504.18 18.0469 503.645 18.1172 503.121 18.1641C502.605 18.2109 502.055 18.2344 501.469 18.2344ZM496.125 12.1406V1.82812H498.609V12.1406H496.125ZM493.008 7.75781V5.57812H504.258V7.75781H493.008ZM512.062 18.2344C510.758 18.2344 509.746 17.8477 509.027 17.0742C508.316 16.293 507.961 15.1953 507.961 13.7812V5.57812H510.445V13.7812C510.445 14.4922 510.648 15.043 511.055 15.4336C511.461 15.8164 512.031 16.0078 512.766 16.0078C513.672 16.0078 514.355 15.7227 514.816 15.1523C515.277 14.5742 515.508 13.6094 515.508 12.2578L516.141 15.6094H515.32C515.125 16.4531 514.742 17.1016 514.172 17.5547C513.602 18.0078 512.898 18.2344 512.062 18.2344ZM515.719 18.1172L515.508 15.1406V12.9609H517.992V15.75L519.703 16.0078V18L515.719 18.1172ZM515.508 14.4844V5.57812H517.992V13.7812L515.508 14.4844ZM526.5 12.6562L525.773 8.76562H526.734C526.875 6.48438 528.016 5.34375 530.156 5.34375C531.438 5.34375 532.367 5.71094 532.945 6.44531C533.523 7.17969 533.812 8.36719 533.812 10.0078H531.352C531.352 9.10156 531.215 8.44922 530.941 8.05078C530.676 7.65234 530.242 7.45312 529.641 7.45312C528.586 7.45312 527.797 7.90625 527.273 8.8125C526.758 9.71094 526.5 10.9922 526.5 12.6562ZM521.25 18V15.8203H529.547V18H521.25ZM524.016 18V5.57812H526.031L526.5 9.14062V18H524.016ZM521.719 7.75781V5.57812H525.867L526.102 7.75781H521.719ZM542.484 18.2344C540.367 18.2344 538.73 17.6797 537.574 16.5703C536.426 15.4531 535.852 13.8516 535.852 11.7656C535.852 9.73438 536.34 8.15625 537.316 7.03125C538.293 5.90625 539.672 5.34375 541.453 5.34375C543.133 5.34375 544.43 5.85156 545.344 6.86719C546.266 7.88281 546.727 9.35938 546.727 11.2969C546.727 11.8672 546.703 12.3984 546.656 12.8906H537.938V10.9922H544.477C544.477 9.875 544.211 9.01953 543.68 8.42578C543.148 7.82422 542.414 7.52344 541.477 7.52344C540.422 7.52344 539.602 7.88281 539.016 8.60156C538.438 9.32031 538.148 10.3359 538.148 11.6484C538.148 13.0859 538.547 14.1797 539.344 14.9297C540.148 15.6797 541.289 16.0547 542.766 16.0547C543.281 16.0547 543.789 16.0273 544.289 15.9727C544.789 15.9102 545.297 15.8281 545.812 15.7266L546.117 17.9062C545.383 18.0469 544.711 18.1367 544.102 18.1758C543.492 18.2148 542.953 18.2344 542.484 18.2344ZM568.57 18.2344C567.633 18.2344 566.828 18.207 566.156 18.1523C565.492 18.0977 564.883 18.0078 564.328 17.8828L564.609 15.6328C565.43 15.7578 566.152 15.8516 566.777 15.9141C567.41 15.9766 568.008 16.0078 568.57 16.0078C569.828 16.0078 570.738 15.8867 571.301 15.6445C571.871 15.3945 572.156 15 572.156 14.4609C572.156 14.0859 572.055 13.8086 571.852 13.6289C571.656 13.4414 571.352 13.2969 570.938 13.1953L568.078 12.4688C566.852 12.1562 565.949 11.7695 565.371 11.3086C564.801 10.8477 564.516 10.1484 564.516 9.21094C564.516 7.85156 565.035 6.86719 566.074 6.25781C567.121 5.64844 568.805 5.34375 571.125 5.34375C571.727 5.34375 572.285 5.36328 572.801 5.40234C573.324 5.43359 573.859 5.49219 574.406 5.57812L574.148 7.73438C573.516 7.67188 572.957 7.62891 572.473 7.60547C571.988 7.58203 571.516 7.57031 571.055 7.57031C569.664 7.57031 568.656 7.69141 568.031 7.93359C567.406 8.16797 567.094 8.55469 567.094 9.09375C567.094 9.45312 567.223 9.71484 567.48 9.87891C567.738 10.0352 568.133 10.1797 568.664 10.3125L570.961 10.875C572.266 11.1875 573.219 11.6055 573.82 12.1289C574.43 12.6523 574.734 13.4141 574.734 14.4141C574.734 15.75 574.246 16.7227 573.27 17.332C572.293 17.9336 570.727 18.2344 568.57 18.2344ZM584.672 18.2344C582.555 18.2344 580.918 17.6797 579.762 16.5703C578.613 15.4531 578.039 13.8516 578.039 11.7656C578.039 9.73438 578.527 8.15625 579.504 7.03125C580.48 5.90625 581.859 5.34375 583.641 5.34375C585.32 5.34375 586.617 5.85156 587.531 6.86719C588.453 7.88281 588.914 9.35938 588.914 11.2969C588.914 11.8672 588.891 12.3984 588.844 12.8906H580.125V10.9922H586.664C586.664 9.875 586.398 9.01953 585.867 8.42578C585.336 7.82422 584.602 7.52344 583.664 7.52344C582.609 7.52344 581.789 7.88281 581.203 8.60156C580.625 9.32031 580.336 10.3359 580.336 11.6484C580.336 13.0859 580.734 14.1797 581.531 14.9297C582.336 15.6797 583.477 16.0547 584.953 16.0547C585.469 16.0547 585.977 16.0273 586.477 15.9727C586.977 15.9102 587.484 15.8281 588 15.7266L588.305 17.9062C587.57 18.0469 586.898 18.1367 586.289 18.1758C585.68 18.2148 585.141 18.2344 584.672 18.2344ZM599.508 18.2344C598.07 18.2344 597.031 17.8438 596.391 17.0625C595.75 16.2812 595.43 15.0312 595.43 13.3125V0.421875H597.914V13.1953C597.914 13.8516 597.977 14.3867 598.102 14.8008C598.227 15.2148 598.469 15.5195 598.828 15.7148C599.195 15.9102 599.734 16.0078 600.445 16.0078C601.094 16.0078 601.922 15.8594 602.93 15.5625L603.211 17.7422C602.578 17.9141 601.969 18.0391 601.383 18.1172C600.805 18.1953 600.18 18.2344 599.508 18.2344ZM591.773 2.60156V0.421875H595.641V2.60156H591.773ZM609.398 18V6.63281C609.398 2.33594 611.359 0.1875 615.281 0.1875C616.172 0.1875 617.031 0.265625 617.859 0.421875L617.602 2.57812C617.109 2.51562 616.676 2.47266 616.301 2.44922C615.926 2.42578 615.562 2.41406 615.211 2.41406C612.992 2.41406 611.883 3.78125 611.883 6.51562V18H609.398ZM605.484 10.5V8.32031H616.969V10.5H605.484ZM642.398 18.1172L642.234 14.4375L641.906 13.4062V10.1953C641.906 9.36719 641.613 8.76172 641.027 8.37891C640.449 7.98828 639.586 7.77734 638.438 7.74609L635.461 7.66406L635.695 5.46094L638.203 5.49609C640.258 5.52734 641.781 5.97266 642.773 6.83203C643.773 7.68359 644.273 8.92969 644.273 10.5703V15.75L646.383 16.0078V18L642.398 18.1172ZM638.016 18.2344C636.719 18.2344 635.715 17.9219 635.004 17.2969C634.293 16.6719 633.938 15.7891 633.938 14.6484C633.938 13.3359 634.426 12.3281 635.402 11.625C636.387 10.9219 637.773 10.5703 639.562 10.5703C640.305 10.5703 640.965 10.6172 641.543 10.7109C642.129 10.7969 642.648 10.9297 643.102 11.1094L642.586 12.7969C642.062 12.6797 641.551 12.6133 641.051 12.5977C640.551 12.5742 640.039 12.5625 639.516 12.5625C637.359 12.5625 636.281 13.2188 636.281 14.5312C636.281 15.0781 636.465 15.5 636.832 15.7969C637.207 16.0938 637.734 16.2422 638.414 16.2422C639.188 16.2422 639.832 16.1094 640.348 15.8438C640.871 15.5781 641.262 15.2383 641.52 14.8242C641.777 14.4102 641.906 13.9844 641.906 13.5469V12.1875L642.633 15.375H641.648L642.047 15C642.047 15.7188 641.879 16.3203 641.543 16.8047C641.215 17.2812 640.75 17.6406 640.148 17.8828C639.547 18.1172 638.836 18.2344 638.016 18.2344ZM656.484 18V9.91406C656.484 9.16406 656.289 8.58594 655.898 8.17969C655.508 7.77344 654.961 7.57031 654.258 7.57031C652.305 7.57031 651.328 8.71875 651.328 11.0156L650.602 7.82812H651.562C651.633 6.99219 651.938 6.37109 652.477 5.96484C653.016 5.55078 653.805 5.34375 654.844 5.34375C656.156 5.34375 657.172 5.74219 657.891 6.53906C658.609 7.33594 658.969 8.46094 658.969 9.91406V18H656.484ZM648.844 18V5.57812H651.094L651.328 8.20312V18H648.844ZM667.02 18.2344C665.395 18.2344 664.16 17.6992 663.316 16.6289C662.48 15.5586 662.062 13.9844 662.062 11.9062C662.062 9.75 662.48 8.11719 663.316 7.00781C664.16 5.89844 665.395 5.34375 667.02 5.34375C667.949 5.34375 668.703 5.5625 669.281 6C669.867 6.4375 670.211 7.04688 670.312 7.82812H671.273L670.547 11.3672C670.547 10.0859 670.293 9.11328 669.785 8.44922C669.285 7.78516 668.547 7.45312 667.57 7.45312C666.57 7.45312 665.812 7.82812 665.297 8.57812C664.781 9.32812 664.523 10.4375 664.523 11.9062C664.523 13.2969 664.781 14.3477 665.297 15.0586C665.812 15.7695 666.57 16.125 667.57 16.125C668.547 16.125 669.285 15.793 669.785 15.1289C670.293 14.4648 670.547 13.4922 670.547 12.2109L671.391 15.75H670.312C670.234 16.5312 669.902 17.1406 669.316 17.5781C668.738 18.0156 667.973 18.2344 667.02 18.2344ZM670.805 18.1172L670.547 15.6797V0.421875H673.031V18L670.805 18.1172ZM695.133 18.2344C694.195 18.2344 693.391 18.207 692.719 18.1523C692.055 18.0977 691.445 18.0078 690.891 17.8828L691.172 15.6328C691.992 15.7578 692.715 15.8516 693.34 15.9141C693.973 15.9766 694.57 16.0078 695.133 16.0078C696.391 16.0078 697.301 15.8867 697.863 15.6445C698.434 15.3945 698.719 15 698.719 14.4609C698.719 14.0859 698.617 13.8086 698.414 13.6289C698.219 13.4414 697.914 13.2969 697.5 13.1953L694.641 12.4688C693.414 12.1562 692.512 11.7695 691.934 11.3086C691.363 10.8477 691.078 10.1484 691.078 9.21094C691.078 7.85156 691.598 6.86719 692.637 6.25781C693.684 5.64844 695.367 5.34375 697.688 5.34375C698.289 5.34375 698.848 5.36328 699.363 5.40234C699.887 5.43359 700.422 5.49219 700.969 5.57812L700.711 7.73438C700.078 7.67188 699.52 7.62891 699.035 7.60547C698.551 7.58203 698.078 7.57031 697.617 7.57031C696.227 7.57031 695.219 7.69141 694.594 7.93359C693.969 8.16797 693.656 8.55469 693.656 9.09375C693.656 9.45312 693.785 9.71484 694.043 9.87891C694.301 10.0352 694.695 10.1797 695.227 10.3125L697.523 10.875C698.828 11.1875 699.781 11.6055 700.383 12.1289C700.992 12.6523 701.297 13.4141 701.297 14.4141C701.297 15.75 700.809 16.7227 699.832 17.332C698.855 17.9336 697.289 18.2344 695.133 18.2344ZM712.734 18V9.91406C712.734 9.125 712.539 8.51953 712.148 8.09766C711.758 7.66797 711.211 7.45312 710.508 7.45312C708.555 7.45312 707.578 8.64062 707.578 11.0156L706.852 7.82812H707.812C707.883 6.99219 708.188 6.37109 708.727 5.96484C709.266 5.55078 710.055 5.34375 711.094 5.34375C712.406 5.34375 713.422 5.74219 714.141 6.53906C714.859 7.33594 715.219 8.46094 715.219 9.91406V18H712.734ZM705.094 18V0.421875H707.578V18H705.094ZM726.773 18.1172L726.609 14.4375L726.281 13.4062V10.1953C726.281 9.36719 725.988 8.76172 725.402 8.37891C724.824 7.98828 723.961 7.77734 722.812 7.74609L719.836 7.66406L720.07 5.46094L722.578 5.49609C724.633 5.52734 726.156 5.97266 727.148 6.83203C728.148 7.68359 728.648 8.92969 728.648 10.5703V15.75L730.758 16.0078V18L726.773 18.1172ZM722.391 18.2344C721.094 18.2344 720.09 17.9219 719.379 17.2969C718.668 16.6719 718.312 15.7891 718.312 14.6484C718.312 13.3359 718.801 12.3281 719.777 11.625C720.762 10.9219 722.148 10.5703 723.938 10.5703C724.68 10.5703 725.34 10.6172 725.918 10.7109C726.504 10.7969 727.023 10.9297 727.477 11.1094L726.961 12.7969C726.438 12.6797 725.926 12.6133 725.426 12.5977C724.926 12.5742 724.414 12.5625 723.891 12.5625C721.734 12.5625 720.656 13.2188 720.656 14.5312C720.656 15.0781 720.84 15.5 721.207 15.7969C721.582 16.0938 722.109 16.2422 722.789 16.2422C723.562 16.2422 724.207 16.1094 724.723 15.8438C725.246 15.5781 725.637 15.2383 725.895 14.8242C726.152 14.4102 726.281 13.9844 726.281 13.5469V12.1875L727.008 15.375H726.023L726.422 15C726.422 15.7188 726.254 16.3203 725.918 16.8047C725.59 17.2812 725.125 17.6406 724.523 17.8828C723.922 18.1172 723.211 18.2344 722.391 18.2344ZM737.438 12.6562L736.711 8.76562H737.672C737.812 6.48438 738.953 5.34375 741.094 5.34375C742.375 5.34375 743.305 5.71094 743.883 6.44531C744.461 7.17969 744.75 8.36719 744.75 10.0078H742.289C742.289 9.10156 742.152 8.44922 741.879 8.05078C741.613 7.65234 741.18 7.45312 740.578 7.45312C739.523 7.45312 738.734 7.90625 738.211 8.8125C737.695 9.71094 737.438 10.9922 737.438 12.6562ZM732.188 18V15.8203H740.484V18H732.188ZM734.953 18V5.57812H736.969L737.438 9.14062V18H734.953ZM732.656 7.75781V5.57812H736.805L737.039 7.75781H732.656ZM753.422 18.2344C751.305 18.2344 749.668 17.6797 748.512 16.5703C747.363 15.4531 746.789 13.8516 746.789 11.7656C746.789 9.73438 747.277 8.15625 748.254 7.03125C749.23 5.90625 750.609 5.34375 752.391 5.34375C754.07 5.34375 755.367 5.85156 756.281 6.86719C757.203 7.88281 757.664 9.35938 757.664 11.2969C757.664 11.8672 757.641 12.3984 757.594 12.8906H748.875V10.9922H755.414C755.414 9.875 755.148 9.01953 754.617 8.42578C754.086 7.82422 753.352 7.52344 752.414 7.52344C751.359 7.52344 750.539 7.88281 749.953 8.60156C749.375 9.32031 749.086 10.3359 749.086 11.6484C749.086 13.0859 749.484 14.1797 750.281 14.9297C751.086 15.6797 752.227 16.0547 753.703 16.0547C754.219 16.0547 754.727 16.0273 755.227 15.9727C755.727 15.9102 756.234 15.8281 756.75 15.7266L757.055 17.9062C756.32 18.0469 755.648 18.1367 755.039 18.1758C754.43 18.2148 753.891 18.2344 753.422 18.2344ZM0.878906 51.625L0.761719 49.3984L2.70703 49.1641C3.52734 49.0625 4.22656 48.8398 4.80469 48.4961C5.39062 48.1523 5.89062 47.6406 6.30469 46.9609C6.71875 46.2891 7.08203 45.4062 7.39453 44.3125L10.4883 33.5781H13.0664L9.48047 44.8984C9.01172 46.3828 8.48438 47.5781 7.89844 48.4844C7.32031 49.3906 6.63281 50.0703 5.83594 50.5234C5.04688 50.9766 4.09766 51.2656 2.98828 51.3906L0.878906 51.625ZM5.58984 46L0.644531 33.5781H3.22266L7.27734 44.125H7.65234V46H5.58984ZM21.0938 46.2344C19.375 46.2344 18.0391 45.6719 17.0859 44.5469C16.1328 43.4219 15.6562 41.8359 15.6562 39.7891C15.6562 37.7344 16.1328 36.1484 17.0859 35.0312C18.0391 33.9062 19.375 33.3438 21.0938 33.3438C22.8203 33.3438 24.1562 33.9062 25.1016 35.0312C26.0547 36.1484 26.5312 37.7344 26.5312 39.7891C26.5312 41.8359 26.0547 43.4219 25.1016 44.5469C24.1562 45.6719 22.8203 46.2344 21.0938 46.2344ZM21.0938 44.0078C22.0078 44.0078 22.7109 43.6406 23.2031 42.9062C23.7031 42.1719 23.9531 41.1328 23.9531 39.7891C23.9531 38.4375 23.7031 37.3984 23.2031 36.6719C22.7109 35.9375 22.0078 35.5703 21.0938 35.5703C20.1797 35.5703 19.4727 35.9375 18.9727 36.6719C18.4805 37.3984 18.2344 38.4375 18.2344 39.7891C18.2344 41.1328 18.4805 42.1719 18.9727 42.9062C19.4727 43.6406 20.1797 44.0078 21.0938 44.0078ZM33.9375 46.2344C32.6328 46.2344 31.6211 45.8477 30.9023 45.0742C30.1914 44.293 29.8359 43.1953 29.8359 41.7812V33.5781H32.3203V41.7812C32.3203 42.4922 32.5234 43.043 32.9297 43.4336C33.3359 43.8164 33.9062 44.0078 34.6406 44.0078C35.5469 44.0078 36.2305 43.7227 36.6914 43.1523C37.1523 42.5742 37.3828 41.6094 37.3828 40.2578L38.0156 43.6094H37.1953C37 44.4531 36.6172 45.1016 36.0469 45.5547C35.4766 46.0078 34.7734 46.2344 33.9375 46.2344ZM37.5938 46.1172L37.3828 43.1406V40.9609H39.8672V43.75L41.5781 44.0078V46L37.5938 46.1172ZM37.3828 42.4844V33.5781H39.8672V41.7812L37.3828 42.4844ZM48.375 40.6562L47.6484 36.7656H48.6094C48.75 34.4844 49.8906 33.3438 52.0312 33.3438C53.3125 33.3438 54.2422 33.7109 54.8203 34.4453C55.3984 35.1797 55.6875 36.3672 55.6875 38.0078H53.2266C53.2266 37.1016 53.0898 36.4492 52.8164 36.0508C52.5508 35.6523 52.1172 35.4531 51.5156 35.4531C50.4609 35.4531 49.6719 35.9062 49.1484 36.8125C48.6328 37.7109 48.375 38.9922 48.375 40.6562ZM43.125 46V43.8203H51.4219V46H43.125ZM45.8906 46V33.5781H47.9062L48.375 37.1406V46H45.8906ZM43.5938 35.7578V33.5781H47.7422L47.9766 35.7578H43.5938ZM79.1953 46.2344C77.7578 46.2344 76.7188 45.8438 76.0781 45.0625C75.4375 44.2812 75.1172 43.0312 75.1172 41.3125V28.4219H77.6016V41.1953C77.6016 41.8516 77.6641 42.3867 77.7891 42.8008C77.9141 43.2148 78.1562 43.5195 78.5156 43.7148C78.8828 43.9102 79.4219 44.0078 80.1328 44.0078C80.7812 44.0078 81.6094 43.8594 82.6172 43.5625L82.8984 45.7422C82.2656 45.9141 81.6562 46.0391 81.0703 46.1172C80.4922 46.1953 79.8672 46.2344 79.1953 46.2344ZM71.4609 30.6016V28.4219H75.3281V30.6016H71.4609ZM90.9844 46V34.2812H93.4688V46H90.9844ZM86.25 46V43.8203H91.2188V46H86.25ZM93.2344 46V43.8203H97.2891V46H93.2344ZM86.9531 35.7578V33.5781H93.4688V35.7578H86.9531ZM92.1445 31.6094C91.668 31.6094 91.2578 31.4414 90.9141 31.1055C90.5781 30.7617 90.4102 30.3516 90.4102 29.875C90.4102 29.3906 90.5781 28.9805 90.9141 28.6445C91.2578 28.3086 91.668 28.1406 92.1445 28.1406C92.6289 28.1406 93.0391 28.3086 93.375 28.6445C93.7109 28.9805 93.8789 29.3906 93.8789 29.875C93.8789 30.3516 93.7109 30.7617 93.375 31.1055C93.0391 31.4414 92.6289 31.6094 92.1445 31.6094ZM103.148 46V34.6328C103.148 30.3359 105.109 28.1875 109.031 28.1875C109.922 28.1875 110.781 28.2656 111.609 28.4219L111.352 30.5781C110.859 30.5156 110.426 30.4727 110.051 30.4492C109.676 30.4258 109.312 30.4141 108.961 30.4141C106.742 30.4141 105.633 31.7812 105.633 34.5156V46H103.148ZM99.2344 38.5V36.3203H110.719V38.5H99.2344ZM120.609 46.2344C118.492 46.2344 116.855 45.6797 115.699 44.5703C114.551 43.4531 113.977 41.8516 113.977 39.7656C113.977 37.7344 114.465 36.1562 115.441 35.0312C116.418 33.9062 117.797 33.3438 119.578 33.3438C121.258 33.3438 122.555 33.8516 123.469 34.8672C124.391 35.8828 124.852 37.3594 124.852 39.2969C124.852 39.8672 124.828 40.3984 124.781 40.8906H116.062V38.9922H122.602C122.602 37.875 122.336 37.0195 121.805 36.4258C121.273 35.8242 120.539 35.5234 119.602 35.5234C118.547 35.5234 117.727 35.8828 117.141 36.6016C116.562 37.3203 116.273 38.3359 116.273 39.6484C116.273 41.0859 116.672 42.1797 117.469 42.9297C118.273 43.6797 119.414 44.0547 120.891 44.0547C121.406 44.0547 121.914 44.0273 122.414 43.9727C122.914 43.9102 123.422 43.8281 123.938 43.7266L124.242 45.9062C123.508 46.0469 122.836 46.1367 122.227 46.1758C121.617 46.2148 121.078 46.2344 120.609 46.2344ZM142.594 51.3906V33.5781H144.844L145.078 36.2031V51.3906H142.594ZM148.605 46.2344C147.652 46.2344 146.883 46.0156 146.297 45.5781C145.719 45.1406 145.391 44.5312 145.312 43.75H144.234L145.078 40.2109C145.078 41.4922 145.328 42.4648 145.828 43.1289C146.336 43.793 147.078 44.125 148.055 44.125C149.055 44.125 149.812 43.7695 150.328 43.0586C150.844 42.3477 151.102 41.2969 151.102 39.9062C151.102 38.4375 150.844 37.3281 150.328 36.5781C149.812 35.8281 149.055 35.4531 148.055 35.4531C147.078 35.4531 146.336 35.7852 145.828 36.4492C145.328 37.1133 145.078 38.0859 145.078 39.3672L144.234 35.8281H145.195C145.305 35.0469 145.656 34.4375 146.25 34C146.852 33.5625 147.637 33.3438 148.605 33.3438C150.238 33.3438 151.473 33.8984 152.309 35.0078C153.145 36.1172 153.562 37.75 153.562 39.9062C153.562 41.9844 153.145 43.5586 152.309 44.6289C151.473 45.6992 150.238 46.2344 148.605 46.2344ZM160.875 40.6562L160.148 36.7656H161.109C161.25 34.4844 162.391 33.3438 164.531 33.3438C165.812 33.3438 166.742 33.7109 167.32 34.4453C167.898 35.1797 168.188 36.3672 168.188 38.0078H165.727C165.727 37.1016 165.59 36.4492 165.316 36.0508C165.051 35.6523 164.617 35.4531 164.016 35.4531C162.961 35.4531 162.172 35.9062 161.648 36.8125C161.133 37.7109 160.875 38.9922 160.875 40.6562ZM155.625 46V43.8203H163.922V46H155.625ZM158.391 46V33.5781H160.406L160.875 37.1406V46H158.391ZM156.094 35.7578V33.5781H160.242L160.477 35.7578H156.094ZM175.781 46.2344C174.062 46.2344 172.727 45.6719 171.773 44.5469C170.82 43.4219 170.344 41.8359 170.344 39.7891C170.344 37.7344 170.82 36.1484 171.773 35.0312C172.727 33.9062 174.062 33.3438 175.781 33.3438C177.508 33.3438 178.844 33.9062 179.789 35.0312C180.742 36.1484 181.219 37.7344 181.219 39.7891C181.219 41.8359 180.742 43.4219 179.789 44.5469C178.844 45.6719 177.508 46.2344 175.781 46.2344ZM175.781 44.0078C176.695 44.0078 177.398 43.6406 177.891 42.9062C178.391 42.1719 178.641 41.1328 178.641 39.7891C178.641 38.4375 178.391 37.3984 177.891 36.6719C177.398 35.9375 176.695 35.5703 175.781 35.5703C174.867 35.5703 174.16 35.9375 173.66 36.6719C173.168 37.3984 172.922 38.4375 172.922 39.7891C172.922 41.1328 173.168 42.1719 173.66 42.9062C174.16 43.6406 174.867 44.0078 175.781 44.0078ZM188.051 46.2344C187.488 46.2344 186.934 46.2109 186.387 46.1641C185.84 46.125 185.285 46.0703 184.723 46L185.684 43.7266C186.098 43.9219 186.555 44.0391 187.055 44.0781C187.555 44.1094 188.051 44.125 188.543 44.125C190.035 44.125 191.188 43.6758 192 42.7773C192.82 41.8789 193.23 40.6094 193.23 38.9688C193.23 37.8438 192.98 36.9766 192.48 36.3672C191.988 35.7578 191.285 35.4531 190.371 35.4531C188.262 35.4531 187.207 36.6406 187.207 39.0156L186.48 35.8281H187.441C187.559 34.1719 188.574 33.3438 190.488 33.3438C192.145 33.3438 193.426 33.832 194.332 34.8086C195.238 35.7852 195.691 37.1719 195.691 38.9688C195.691 41.2734 195.023 43.0625 193.688 44.3359C192.359 45.6016 190.48 46.2344 188.051 46.2344ZM184.723 46V28.4219H187.207V45.7891L184.723 46ZM205.758 46.2344C204.32 46.2344 203.281 45.8438 202.641 45.0625C202 44.2812 201.68 43.0312 201.68 41.3125V28.4219H204.164V41.1953C204.164 41.8516 204.227 42.3867 204.352 42.8008C204.477 43.2148 204.719 43.5195 205.078 43.7148C205.445 43.9102 205.984 44.0078 206.695 44.0078C207.344 44.0078 208.172 43.8594 209.18 43.5625L209.461 45.7422C208.828 45.9141 208.219 46.0391 207.633 46.1172C207.055 46.1953 206.43 46.2344 205.758 46.2344ZM198.023 30.6016V28.4219H201.891V30.6016H198.023ZM219.047 46.2344C216.93 46.2344 215.293 45.6797 214.137 44.5703C212.988 43.4531 212.414 41.8516 212.414 39.7656C212.414 37.7344 212.902 36.1562 213.879 35.0312C214.855 33.9062 216.234 33.3438 218.016 33.3438C219.695 33.3438 220.992 33.8516 221.906 34.8672C222.828 35.8828 223.289 37.3594 223.289 39.2969C223.289 39.8672 223.266 40.3984 223.219 40.8906H214.5V38.9922H221.039C221.039 37.875 220.773 37.0195 220.242 36.4258C219.711 35.8242 218.977 35.5234 218.039 35.5234C216.984 35.5234 216.164 35.8828 215.578 36.6016C215 37.3203 214.711 38.3359 214.711 39.6484C214.711 41.0859 215.109 42.1797 215.906 42.9297C216.711 43.6797 217.852 44.0547 219.328 44.0547C219.844 44.0547 220.352 44.0273 220.852 43.9727C221.352 43.9102 221.859 43.8281 222.375 43.7266L222.68 45.9062C221.945 46.0469 221.273 46.1367 220.664 46.1758C220.055 46.2148 219.516 46.2344 219.047 46.2344ZM235.266 46V36.5078C235.266 35.6484 234.945 35.2188 234.305 35.2188C233.492 35.2188 233.086 35.7812 233.086 36.9062L232.242 35.125H233.203C233.242 34.6406 233.434 34.2227 233.777 33.8711C234.129 33.5195 234.633 33.3438 235.289 33.3438C236.148 33.3438 236.773 33.5742 237.164 34.0352C237.555 34.4961 237.75 35.2422 237.75 36.2734V46H235.266ZM226.312 46V33.5781H228.516L228.797 36.2031V46H226.312ZM230.977 46V36.2734C230.977 35.5703 230.648 35.2188 229.992 35.2188C229.195 35.2188 228.797 35.7812 228.797 36.9062L228.07 35.125H228.867C228.961 33.9375 229.672 33.3438 231 33.3438C231.648 33.3438 232.156 33.5664 232.523 34.0117C232.898 34.457 233.086 35.1328 233.086 36.0391V46H230.977ZM245.133 46.2344C244.195 46.2344 243.391 46.207 242.719 46.1523C242.055 46.0977 241.445 46.0078 240.891 45.8828L241.172 43.6328C241.992 43.7578 242.715 43.8516 243.34 43.9141C243.973 43.9766 244.57 44.0078 245.133 44.0078C246.391 44.0078 247.301 43.8867 247.863 43.6445C248.434 43.3945 248.719 43 248.719 42.4609C248.719 42.0859 248.617 41.8086 248.414 41.6289C248.219 41.4414 247.914 41.2969 247.5 41.1953L244.641 40.4688C243.414 40.1562 242.512 39.7695 241.934 39.3086C241.363 38.8477 241.078 38.1484 241.078 37.2109C241.078 35.8516 241.598 34.8672 242.637 34.2578C243.684 33.6484 245.367 33.3438 247.688 33.3438C248.289 33.3438 248.848 33.3633 249.363 33.4023C249.887 33.4336 250.422 33.4922 250.969 33.5781L250.711 35.7344C250.078 35.6719 249.52 35.6289 249.035 35.6055C248.551 35.582 248.078 35.5703 247.617 35.5703C246.227 35.5703 245.219 35.6914 244.594 35.9336C243.969 36.168 243.656 36.5547 243.656 37.0938C243.656 37.4531 243.785 37.7148 244.043 37.8789C244.301 38.0352 244.695 38.1797 245.227 38.3125L247.523 38.875C248.828 39.1875 249.781 39.6055 250.383 40.1289C250.992 40.6523 251.297 41.4141 251.297 42.4141C251.297 43.75 250.809 44.7227 249.832 45.332C248.855 45.9336 247.289 46.2344 245.133 46.2344ZM260.156 46.2344C259.68 46.2344 259.27 46.0664 258.926 45.7305C258.59 45.3867 258.422 44.9766 258.422 44.5C258.422 44.0156 258.59 43.6055 258.926 43.2695C259.27 42.9336 259.68 42.7656 260.156 42.7656C260.641 42.7656 261.051 42.9336 261.387 43.2695C261.723 43.6055 261.891 44.0156 261.891 44.5C261.891 44.9766 261.723 45.3867 261.387 45.7305C261.051 46.0664 260.641 46.2344 260.156 46.2344Z" fill="#EDFF62"/>
</svg>
