<svg width="52" height="50" viewBox="0 0 52 50" fill="none" xmlns="http://www.w3.org/2000/svg">
<path d="M18.0952 20.0421C18.0952 18.1477 18.8478 16.3309 20.1873 14.9914C21.5269 13.6518 23.3437 12.8993 25.2381 12.8993C27.1325 12.8993 28.9493 13.6518 30.2888 14.9914C31.6284 16.3309 32.3809 18.1477 32.3809 20.0421V24.3279C32.3809 26.2223 31.6284 28.0391 30.2888 29.3786C28.9493 30.7182 27.1325 31.4707 25.2381 31.4707C23.3437 31.4707 21.5269 30.7182 20.1873 29.3786C18.8478 28.0391 18.0952 26.2223 18.0952 24.3279V20.0421Z" fill="#D7D8FF" stroke="#D7D8FF" stroke-width="2.14286"/>
<path d="M25.2383 35.7564V40.0421" stroke="#D7D8FF" stroke-width="2.14286" stroke-linecap="round"/>
<path d="M14.1924 25.0418C14.3652 27.7175 15.5018 30.2497 17.4092 32.157C19.3165 34.0644 21.8488 35.2 24.5244 35.3729V36.0897C21.6591 35.9159 18.9457 34.7033 16.9043 32.6619C14.8629 30.6206 13.6504 27.9071 13.4766 25.0418H14.1924ZM37.002 25.0418C36.8898 26.8978 36.3398 28.7044 35.3926 30.3123C34.4454 31.9202 33.1315 33.2764 31.5625 34.2742L31.2148 33.6483C32.6727 32.7132 33.8948 31.4479 34.7773 29.95C35.6599 28.4521 36.1748 26.7702 36.2861 25.0418H37.002Z" fill="black" stroke="#D7D8FF" stroke-width="1.42857"/>
</svg>
