<svg width="52" height="50" viewBox="0 0 52 50" fill="none" xmlns="http://www.w3.org/2000/svg">
<path d="M17.8335 20.1427C17.8335 18.2483 18.586 16.4315 19.9256 15.092C21.2651 13.7524 23.0819 12.9999 24.9764 12.9999C26.8708 12.9999 28.6876 13.7524 30.0271 15.092C31.3667 16.4315 32.1192 18.2483 32.1192 20.1427V24.4284C32.1192 26.3229 31.3667 28.1397 30.0271 29.4792C28.6876 30.8188 26.8708 31.5713 24.9764 31.5713C23.0819 31.5713 21.2651 30.8188 19.9256 29.4792C18.586 28.1397 17.8335 26.3229 17.8335 24.4284V20.1427Z" fill="#D7D8FF" stroke="#D7D8FF" stroke-width="2.14286"/>
<path d="M24.9766 35.8571V40.1428" stroke="#D7D8FF" stroke-width="2.14286" stroke-linecap="round"/>
<path d="M13.9307 25.1425C14.1035 27.8181 15.2401 30.3503 17.1475 32.2577C19.0548 34.165 21.5871 35.3007 24.2627 35.4735V36.1903C21.3974 36.0165 18.6839 34.8039 16.6426 32.7626C14.6012 30.7212 13.3886 28.0077 13.2148 25.1425H13.9307ZM36.7402 25.1425C36.628 26.9985 36.078 28.805 35.1309 30.413C34.1837 32.0209 32.8697 33.377 31.3008 34.3749L30.9531 33.7489C32.411 32.8139 33.6331 31.5485 34.5156 30.0507C35.3982 28.5527 35.9131 26.8709 36.0244 25.1425H36.7402Z" fill="black" stroke="#D7D8FF" stroke-width="1.42857"/>
<path d="M13.7383 38.1006L35.7383 11.1006" stroke="#D7D8FF" stroke-width="2" stroke-linecap="round"/>
</svg>
