<svg width="1538" height="556" viewBox="0 0 1538 556" fill="none" xmlns="http://www.w3.org/2000/svg">
<g filter="url(#filter0_f_208_619)">
<path d="M558.875 386.312H561.625V410.062H557.125C557.125 403.562 555.312 398.938 551.688 396.188C548.104 393.438 542.75 392.062 535.625 392.062H530.875C530.417 396.604 530.188 400.688 530.188 404.312C530.188 412.271 531.562 417.979 534.312 421.438C537.062 424.896 541.854 426.625 548.688 426.625H553.875V430.938L530.875 431.438V456.062C530.875 462.479 534.042 465.792 540.375 466V469H509.812V466C513.521 465.958 516.021 465.25 517.312 463.875C518.646 462.458 519.312 459.854 519.312 456.062V401.938C519.312 397.896 518.604 395.271 517.188 394.062C515.771 392.812 513.312 392.146 509.812 392.062V389.062H557.125C557.417 389.062 557.75 388.792 558.125 388.25C558.542 387.667 558.792 387.021 558.875 386.312ZM618.562 389.062H646.125V392.062C638.333 393.229 634.438 406.25 634.438 431.125C634.438 439.75 634.25 445.917 633.875 449.625C633.542 453.292 632.292 456.75 630.125 460C627.958 463.208 624.646 465.812 620.188 467.812C615.729 469.812 610.375 470.812 604.125 470.812C597.583 470.812 592 469.854 587.375 467.938C582.792 466.021 579.271 463.271 576.812 459.688C574.396 456.062 573.188 451.625 573.188 446.375V402C573.188 397.917 572.458 395.271 571 394.062C569.583 392.812 567.146 392.146 563.688 392.062V389.062H594.25V392.062C590.542 392.146 588.021 392.875 586.688 394.25C585.396 395.583 584.75 398.167 584.75 402V445.875C584.75 450.042 585.396 453.5 586.688 456.25C587.979 458.958 590.354 461.417 593.812 463.625C597.312 465.792 601.646 466.875 606.812 466.875C611.979 466.875 616.333 465.938 619.875 464.062C623.458 462.188 626.042 459.396 627.625 455.688C629.25 451.938 630.062 446.312 630.062 438.812C630.062 422.354 629.188 410.542 627.438 403.375C625.729 396.208 622.771 392.438 618.562 392.062V389.062ZM648.875 386.25H651.625C652.167 388.125 652.979 389.062 654.062 389.062H708.688C710.104 389.062 710.812 388.125 710.812 386.25H713.812V410H709.375C709.25 398.042 702.917 392.062 690.375 392.062H687V456.062C687 462.521 690.167 465.833 696.5 466V469H665.938V466C669.688 465.958 672.208 465.25 673.5 463.875C674.792 462.458 675.438 459.854 675.438 456.062V392.062H671.125C659.583 392.062 653.625 398.042 653.25 410H648.875V386.25ZM772.062 389.062H799.625V392.062C791.833 393.229 787.938 406.25 787.938 431.125C787.938 439.75 787.75 445.917 787.375 449.625C787.042 453.292 785.792 456.75 783.625 460C781.458 463.208 778.146 465.812 773.688 467.812C769.229 469.812 763.875 470.812 757.625 470.812C751.083 470.812 745.5 469.854 740.875 467.938C736.292 466.021 732.771 463.271 730.312 459.688C727.896 456.062 726.688 451.625 726.688 446.375V402C726.688 397.917 725.958 395.271 724.5 394.062C723.083 392.812 720.646 392.146 717.188 392.062V389.062H747.75V392.062C744.042 392.146 741.521 392.875 740.188 394.25C738.896 395.583 738.25 398.167 738.25 402V445.875C738.25 450.042 738.896 453.5 740.188 456.25C741.479 458.958 743.854 461.417 747.312 463.625C750.812 465.792 755.146 466.875 760.312 466.875C765.479 466.875 769.833 465.938 773.375 464.062C776.958 462.188 779.542 459.396 781.125 455.688C782.75 451.938 783.562 446.312 783.562 438.812C783.562 422.354 782.688 410.542 780.938 403.375C779.229 396.208 776.271 392.438 772.062 392.062V389.062ZM804.5 389.062H844.25C850.167 389.062 854.583 390.208 857.5 392.5C860.458 394.792 861.938 398.229 861.938 402.812C861.938 407.938 860.271 412.729 856.938 417.188C853.646 421.604 848.688 425.708 842.062 429.5L856 451.062C862.25 460.729 868.021 465.708 873.312 466V469H858.312C855.312 469 852.646 467.208 850.312 463.625L825.562 425.125V456.062C825.562 462.479 828.771 465.792 835.188 466V469H804.5V466C808.25 465.958 810.771 465.25 812.062 463.875C813.354 462.458 814 459.854 814 456.062V401.938C814 397.896 813.292 395.271 811.875 394.062C810.458 392.812 808 392.146 804.5 392.062V389.062ZM825.562 395.125V421.188C830.438 424.729 834.625 426.5 838.125 426.5C841.792 426.5 844.542 425.271 846.375 422.812C848.208 420.312 849.125 416.604 849.125 411.688C849.125 405.688 847.771 400.917 845.062 397.375C842.354 393.792 839.062 392 835.188 392C831.771 392 828.562 393.042 825.562 395.125ZM923.188 385.938H926.125V409.812H921.562C921.479 403.562 919.688 399.042 916.188 396.25C912.688 393.458 907.354 392.062 900.188 392.062H895.438C894.938 396.604 894.688 400.667 894.688 404.25C894.688 411.375 896.062 416.625 898.812 420C901.604 423.375 906.083 425.062 912.25 425.062H918.375V429.438L895.438 430.062V466H902.062C916.062 466 924.083 459.333 926.125 446H930.562L925.438 471.75H922.312C922.271 469.917 921.479 469 919.938 469H874.375V466C878.125 465.958 880.646 465.25 881.938 463.875C883.229 462.5 883.875 459.896 883.875 456.062V402C883.875 397.917 883.146 395.271 881.688 394.062C880.271 392.812 877.833 392.146 874.375 392.062V389.062H919C921.708 389.062 923.104 388.021 923.188 385.938ZM984.625 386.312H987.375V410.062H982.875C982.875 403.562 981.062 398.938 977.438 396.188C973.854 393.438 968.5 392.062 961.375 392.062H956.625C956.167 396.604 955.938 400.688 955.938 404.312C955.938 412.271 957.312 417.979 960.062 421.438C962.812 424.896 967.604 426.625 974.438 426.625H979.625V430.938L956.625 431.438V456.062C956.625 462.479 959.792 465.792 966.125 466V469H935.562V466C939.271 465.958 941.771 465.25 943.062 463.875C944.396 462.458 945.062 459.854 945.062 456.062V401.938C945.062 397.896 944.354 395.271 942.938 394.062C941.521 392.812 939.062 392.146 935.562 392.062V389.062H982.875C983.167 389.062 983.5 388.792 983.875 388.25C984.292 387.667 984.542 387.021 984.625 386.312ZM990.562 389.062H1021.25V392.062C1017.46 392.146 1014.92 392.854 1013.62 394.188C1012.33 395.521 1011.69 398.125 1011.69 402V466H1019.81C1032.44 466 1039.94 459.375 1042.31 446.125H1046.81L1041.44 471.938H1038.5C1038.46 469.979 1037.56 469 1035.81 469H990.562V466C994.271 465.958 996.771 465.25 998.062 463.875C999.396 462.458 1000.06 459.854 1000.06 456.062V402C1000.06 397.958 999.354 395.312 997.938 394.062C996.521 392.812 994.062 392.146 990.562 392.062V389.062ZM1099.31 385.938H1102.25V409.812H1097.69C1097.6 403.562 1095.81 399.042 1092.31 396.25C1088.81 393.458 1083.48 392.062 1076.31 392.062H1071.56C1071.06 396.604 1070.81 400.667 1070.81 404.25C1070.81 411.375 1072.19 416.625 1074.94 420C1077.73 423.375 1082.21 425.062 1088.38 425.062H1094.5V429.438L1071.56 430.062V466H1078.19C1092.19 466 1100.21 459.333 1102.25 446H1106.69L1101.56 471.75H1098.44C1098.4 469.917 1097.6 469 1096.06 469H1050.5V466C1054.25 465.958 1056.77 465.25 1058.06 463.875C1059.35 462.5 1060 459.896 1060 456.062V402C1060 397.917 1059.27 395.271 1057.81 394.062C1056.4 392.812 1053.96 392.146 1050.5 392.062V389.062H1095.12C1097.83 389.062 1099.23 388.021 1099.31 385.938ZM1183.25 453.75C1170.04 465.125 1158 470.812 1147.12 470.812C1138.25 470.812 1130.27 467.438 1123.19 460.688C1116.15 453.896 1112.62 444.562 1112.62 432.688C1112.62 424.396 1114.46 416.979 1118.12 410.438C1121.79 403.896 1126.98 398.396 1133.69 393.938C1140.44 389.479 1148.54 387.25 1158 387.25C1166.25 387.25 1174.04 388.542 1181.38 391.125V410H1176.94C1176.4 404.083 1173.79 399.479 1169.12 396.188C1164.46 392.854 1158.9 391.188 1152.44 391.188C1143.4 391.188 1136.29 394.5 1131.12 401.125C1125.96 407.75 1123.38 415.875 1123.38 425.5C1123.38 435.917 1126.31 444.562 1132.19 451.438C1138.06 458.312 1145.6 461.75 1154.81 461.75C1164.02 461.75 1173.5 457.812 1183.25 449.938V453.75ZM1188 386.25H1190.75C1191.29 388.125 1192.1 389.062 1193.19 389.062H1247.81C1249.23 389.062 1249.94 388.125 1249.94 386.25H1252.94V410H1248.5C1248.38 398.042 1242.04 392.062 1229.5 392.062H1226.12V456.062C1226.12 462.521 1229.29 465.833 1235.62 466V469H1205.06V466C1208.81 465.958 1211.33 465.25 1212.62 463.875C1213.92 462.458 1214.56 459.854 1214.56 456.062V392.062H1210.25C1198.71 392.062 1192.75 398.042 1192.38 410H1188V386.25Z" fill="url(#paint0_linear_208_619)"/>
</g>
<g filter="url(#filter1_f_208_619)">
<path d="M177.617 100.801H181.914V137.91H174.883C174.883 127.754 172.051 120.527 166.387 116.23C160.788 111.934 152.422 109.785 141.289 109.785H133.867C133.151 116.882 132.793 123.262 132.793 128.926C132.793 141.361 134.941 150.28 139.238 155.684C143.535 161.087 151.022 163.789 161.699 163.789H169.805V170.527L133.867 171.309V209.785C133.867 219.811 138.815 224.987 148.711 225.312V230H100.957V225.312C106.751 225.247 110.658 224.141 112.676 221.992C114.759 219.779 115.801 215.71 115.801 209.785V125.215C115.801 118.9 114.694 114.798 112.48 112.91C110.267 110.957 106.426 109.915 100.957 109.785V105.098H174.883C175.339 105.098 175.859 104.674 176.445 103.828C177.096 102.917 177.487 101.908 177.617 100.801ZM183.574 144.062L217.07 138.105V141.914C214.336 142.695 212.969 144.941 212.969 148.652V209.102C212.969 213.073 213.848 216.198 215.605 218.477C217.363 220.755 219.707 221.895 222.637 221.895C230.124 221.895 237.578 216.263 245 205C252.422 193.737 256.133 180.488 256.133 165.254C256.133 159.395 255.352 155.033 253.789 152.168C252.292 149.303 249.59 147.871 245.684 147.871C244.447 147.871 242.591 148.132 240.117 148.652V144.062L274.102 138.105V141.914C271.237 142.37 269.805 144.616 269.805 148.652V211.445C269.805 217.5 272.051 220.527 276.543 220.527C279.212 220.527 282.63 219.551 286.797 217.598V222.383L259.844 233.125H255.059V200.703C244.837 214.635 236.732 223.49 230.742 227.266C224.818 230.977 219.316 232.832 214.238 232.832C203.496 232.832 198.125 225.215 198.125 209.98V156.562C198.125 150.898 195.098 148.066 189.043 148.066C187.741 148.066 185.918 148.262 183.574 148.652V144.062ZM329.766 109.785V114.863C325.664 115.84 323.613 120.462 323.613 128.73C323.613 134.329 324.069 138.236 324.98 140.449C325.957 142.663 327.617 144.486 329.961 145.918C332.37 147.35 335.56 148.066 339.531 148.066H347.637V152.461H323.711V215.156C323.711 217.174 324.102 218.704 324.883 219.746C325.729 220.788 326.966 221.309 328.594 221.309C331.784 221.309 336.536 218.704 342.852 213.496C343.568 212.91 344.121 212.487 344.512 212.227V217.891C333.444 227.852 324.622 232.832 318.047 232.832C314.987 232.832 312.676 231.66 311.113 229.316C309.616 226.908 308.867 223.359 308.867 218.672V152.461H293.926V148.066C299.655 148.066 303.724 146.927 306.133 144.648C308.542 142.37 309.746 138.366 309.746 132.637V117.891L329.766 109.785ZM352.52 144.062L386.016 138.105V141.914C383.281 142.695 381.914 144.941 381.914 148.652V209.102C381.914 213.073 382.793 216.198 384.551 218.477C386.309 220.755 388.652 221.895 391.582 221.895C399.069 221.895 406.523 216.263 413.945 205C421.367 193.737 425.078 180.488 425.078 165.254C425.078 159.395 424.297 155.033 422.734 152.168C421.237 149.303 418.535 147.871 414.629 147.871C413.392 147.871 411.536 148.132 409.062 148.652V144.062L443.047 138.105V141.914C440.182 142.37 438.75 144.616 438.75 148.652V211.445C438.75 217.5 440.996 220.527 445.488 220.527C448.158 220.527 451.576 219.551 455.742 217.598V222.383L428.789 233.125H424.004V200.703C413.783 214.635 405.677 223.49 399.688 227.266C393.763 230.977 388.262 232.832 383.184 232.832C372.441 232.832 367.07 225.215 367.07 209.98V156.562C367.07 150.898 364.043 148.066 357.988 148.066C356.686 148.066 354.863 148.262 352.52 148.652V144.062ZM465.02 148.262L490.703 137.812H495V169.551C501.706 158.092 507.695 149.987 512.969 145.234C518.242 140.417 523.646 138.008 529.18 138.008C531.328 138.008 533.9 138.496 536.895 139.473V169.551H529.961C529.896 157.767 526.478 151.875 519.707 151.875C513.001 151.875 507.012 157.376 501.738 168.379C496.53 179.316 493.926 191.719 493.926 205.586C493.926 213.789 495.423 219.128 498.418 221.602C501.478 224.076 507.272 225.312 515.801 225.312V230H465.02V225.312C470.358 225.182 474.199 224.043 476.543 221.895C478.887 219.681 480.059 215.742 480.059 210.078V159.395C480.059 153.665 477.943 150.801 473.711 150.801C471.953 150.801 469.056 151.517 465.02 152.949V148.262ZM625.469 205.488C610.951 223.717 596.79 232.832 582.988 232.832C573.288 232.832 564.727 228.633 557.305 220.234C549.883 211.771 546.172 201.745 546.172 190.156C546.172 176.81 550.566 164.798 559.355 154.121C568.21 143.379 578.626 138.008 590.605 138.008C600.241 138.008 607.891 141.426 613.555 148.262C619.219 155.098 622.214 163.431 622.539 173.262H559.551C559.421 175.801 559.355 177.656 559.355 178.828C559.355 190.352 562.415 199.987 568.535 207.734C574.655 215.417 582.207 219.258 591.191 219.258C602.389 219.258 613.815 212.52 625.469 199.043V205.488ZM606.523 168.379C605.742 160.697 603.301 154.74 599.199 150.508C595.098 146.276 590.247 144.16 584.648 144.16C578.789 144.16 573.548 146.471 568.926 151.094C564.303 155.651 561.471 161.413 560.43 168.379H606.523ZM100.176 331.066H104.473C106.1 331.066 107.988 330.448 110.137 329.211C112.285 327.909 114.238 324.133 115.996 317.883C119.512 305.448 124.655 295.943 131.426 289.367C138.197 282.792 145.358 279.504 152.91 279.504C155.319 279.504 158.639 280.155 162.871 281.457V306.164H155.84C155.514 294.185 151.51 288.195 143.828 288.195C139.531 288.195 135.951 290.474 133.086 295.031C130.286 299.589 128.887 305.513 128.887 312.805C128.887 324.979 134.518 331.066 145.781 331.066H153.887V335.656H129.961V393.078C129.961 398.872 131.165 402.844 133.574 404.992C135.983 407.076 139.759 408.182 144.902 408.312V413H100.176V408.312C105.775 408.182 109.648 406.945 111.797 404.602C114.01 402.258 115.117 398.417 115.117 393.078V335.656H100.176V331.066ZM194.609 278.723C191.81 280.09 190.41 282.466 190.41 285.852V393.078C190.41 398.807 191.582 402.746 193.926 404.895C196.335 407.043 200.143 408.182 205.352 408.312V413H160.527V408.312C165.866 408.182 169.707 407.01 172.051 404.797C174.395 402.583 175.566 398.677 175.566 393.078V300.207C175.566 294.217 173.092 291.223 168.145 291.223C166.061 291.223 163.522 291.743 160.527 292.785V288.098L194.609 274.719V278.723ZM292.656 388.488C278.138 406.717 263.978 415.832 250.176 415.832C240.475 415.832 231.914 411.633 224.492 403.234C217.07 394.771 213.359 384.745 213.359 373.156C213.359 359.81 217.754 347.798 226.543 337.121C235.397 326.379 245.814 321.008 257.793 321.008C267.428 321.008 275.078 324.426 280.742 331.262C286.406 338.098 289.401 346.431 289.727 356.262H226.738C226.608 358.801 226.543 360.656 226.543 361.828C226.543 373.352 229.603 382.987 235.723 390.734C241.842 398.417 249.395 402.258 258.379 402.258C269.577 402.258 281.003 395.52 292.656 382.043V388.488ZM273.711 351.379C272.93 343.697 270.488 337.74 266.387 333.508C262.285 329.276 257.435 327.16 251.836 327.16C245.977 327.16 240.736 329.471 236.113 334.094C231.491 338.651 228.659 344.413 227.617 351.379H273.711ZM378.789 389.074C364.531 406.913 350.729 415.832 337.383 415.832C328.789 415.832 320.553 412.186 312.676 404.895C304.863 397.603 300.957 387.219 300.957 373.742C300.957 359.745 305.71 347.408 315.215 336.73C324.785 326.053 336.243 320.715 349.59 320.715C357.728 320.715 366.549 322.863 376.055 327.16V352.648H368.926C368.73 344.901 366.257 338.651 361.504 333.898C356.816 329.081 350.924 326.672 343.828 326.672C334.844 326.672 327.78 330.513 322.637 338.195C317.559 345.812 315.02 354.602 315.02 364.562C315.02 375.37 317.819 384.452 323.418 391.809C329.017 399.165 336.243 402.844 345.098 402.844C350.501 402.844 355.742 401.249 360.82 398.059C365.964 394.868 371.953 389.595 378.789 382.238V389.074ZM424.883 292.785V297.863C420.781 298.84 418.73 303.462 418.73 311.73C418.73 317.329 419.186 321.236 420.098 323.449C421.074 325.663 422.734 327.486 425.078 328.918C427.487 330.35 430.677 331.066 434.648 331.066H442.754V335.461H418.828V398.156C418.828 400.174 419.219 401.704 420 402.746C420.846 403.788 422.083 404.309 423.711 404.309C426.901 404.309 431.654 401.704 437.969 396.496C438.685 395.91 439.238 395.487 439.629 395.227V400.891C428.561 410.852 419.74 415.832 413.164 415.832C410.104 415.832 407.793 414.66 406.23 412.316C404.733 409.908 403.984 406.359 403.984 401.672V335.461H389.043V331.066C394.772 331.066 398.841 329.927 401.25 327.648C403.659 325.37 404.863 321.366 404.863 315.637V300.891L424.883 292.785Z" fill="#D7D8FF"/>
</g>
<g filter="url(#filter2_f_208_619)">
<path d="M223.617 192.801H227.914V229.91H220.883C220.883 219.754 218.051 212.527 212.387 208.23C206.788 203.934 198.422 201.785 187.289 201.785H179.867C179.151 208.882 178.793 215.262 178.793 220.926C178.793 233.361 180.941 242.28 185.238 247.684C189.535 253.087 197.022 255.789 207.699 255.789H215.805V262.527L179.867 263.309V301.785C179.867 311.811 184.815 316.987 194.711 317.312V322H146.957V317.312C152.751 317.247 156.658 316.141 158.676 313.992C160.759 311.779 161.801 307.71 161.801 301.785V217.215C161.801 210.9 160.694 206.798 158.48 204.91C156.267 202.957 152.426 201.915 146.957 201.785V197.098H220.883C221.339 197.098 221.859 196.674 222.445 195.828C223.096 194.917 223.487 193.908 223.617 192.801ZM229.574 236.062L263.07 230.105V233.914C260.336 234.695 258.969 236.941 258.969 240.652V301.102C258.969 305.073 259.848 308.198 261.605 310.477C263.363 312.755 265.707 313.895 268.637 313.895C276.124 313.895 283.578 308.263 291 297C298.422 285.737 302.133 272.488 302.133 257.254C302.133 251.395 301.352 247.033 299.789 244.168C298.292 241.303 295.59 239.871 291.684 239.871C290.447 239.871 288.591 240.132 286.117 240.652V236.062L320.102 230.105V233.914C317.237 234.37 315.805 236.616 315.805 240.652V303.445C315.805 309.5 318.051 312.527 322.543 312.527C325.212 312.527 328.63 311.551 332.797 309.598V314.383L305.844 325.125H301.059V292.703C290.837 306.635 282.732 315.49 276.742 319.266C270.818 322.977 265.316 324.832 260.238 324.832C249.496 324.832 244.125 317.215 244.125 301.98V248.562C244.125 242.898 241.098 240.066 235.043 240.066C233.741 240.066 231.918 240.262 229.574 240.652V236.062ZM375.766 201.785V206.863C371.664 207.84 369.613 212.462 369.613 220.73C369.613 226.329 370.069 230.236 370.98 232.449C371.957 234.663 373.617 236.486 375.961 237.918C378.37 239.35 381.56 240.066 385.531 240.066H393.637V244.461H369.711V307.156C369.711 309.174 370.102 310.704 370.883 311.746C371.729 312.788 372.966 313.309 374.594 313.309C377.784 313.309 382.536 310.704 388.852 305.496C389.568 304.91 390.121 304.487 390.512 304.227V309.891C379.444 319.852 370.622 324.832 364.047 324.832C360.987 324.832 358.676 323.66 357.113 321.316C355.616 318.908 354.867 315.359 354.867 310.672V244.461H339.926V240.066C345.655 240.066 349.724 238.927 352.133 236.648C354.542 234.37 355.746 230.366 355.746 224.637V209.891L375.766 201.785ZM398.52 236.062L432.016 230.105V233.914C429.281 234.695 427.914 236.941 427.914 240.652V301.102C427.914 305.073 428.793 308.198 430.551 310.477C432.309 312.755 434.652 313.895 437.582 313.895C445.069 313.895 452.523 308.263 459.945 297C467.367 285.737 471.078 272.488 471.078 257.254C471.078 251.395 470.297 247.033 468.734 244.168C467.237 241.303 464.535 239.871 460.629 239.871C459.392 239.871 457.536 240.132 455.062 240.652V236.062L489.047 230.105V233.914C486.182 234.37 484.75 236.616 484.75 240.652V303.445C484.75 309.5 486.996 312.527 491.488 312.527C494.158 312.527 497.576 311.551 501.742 309.598V314.383L474.789 325.125H470.004V292.703C459.783 306.635 451.677 315.49 445.688 319.266C439.763 322.977 434.262 324.832 429.184 324.832C418.441 324.832 413.07 317.215 413.07 301.98V248.562C413.07 242.898 410.043 240.066 403.988 240.066C402.686 240.066 400.863 240.262 398.52 240.652V236.062ZM511.02 240.262L536.703 229.812H541V261.551C547.706 250.092 553.695 241.987 558.969 237.234C564.242 232.417 569.646 230.008 575.18 230.008C577.328 230.008 579.9 230.496 582.895 231.473V261.551H575.961C575.896 249.767 572.478 243.875 565.707 243.875C559.001 243.875 553.012 249.376 547.738 260.379C542.53 271.316 539.926 283.719 539.926 297.586C539.926 305.789 541.423 311.128 544.418 313.602C547.478 316.076 553.272 317.312 561.801 317.312V322H511.02V317.312C516.358 317.182 520.199 316.043 522.543 313.895C524.887 311.681 526.059 307.742 526.059 302.078V251.395C526.059 245.665 523.943 242.801 519.711 242.801C517.953 242.801 515.056 243.517 511.02 244.949V240.262ZM671.469 297.488C656.951 315.717 642.79 324.832 628.988 324.832C619.288 324.832 610.727 320.633 603.305 312.234C595.883 303.771 592.172 293.745 592.172 282.156C592.172 268.81 596.566 256.798 605.355 246.121C614.21 235.379 624.626 230.008 636.605 230.008C646.241 230.008 653.891 233.426 659.555 240.262C665.219 247.098 668.214 255.431 668.539 265.262H605.551C605.421 267.801 605.355 269.656 605.355 270.828C605.355 282.352 608.415 291.987 614.535 299.734C620.655 307.417 628.207 311.258 637.191 311.258C648.389 311.258 659.815 304.52 671.469 291.043V297.488ZM652.523 260.379C651.742 252.697 649.301 246.74 645.199 242.508C641.098 238.276 636.247 236.16 630.648 236.16C624.789 236.16 619.548 238.471 614.926 243.094C610.303 247.651 607.471 253.413 606.43 260.379H652.523ZM680.551 240.066H684.848C686.475 240.066 688.363 239.448 690.512 238.211C692.66 236.909 694.613 233.133 696.371 226.883C699.887 214.448 705.03 204.943 711.801 198.367C718.572 191.792 725.733 188.504 733.285 188.504C735.694 188.504 739.014 189.155 743.246 190.457V215.164H736.215C735.889 203.185 731.885 197.195 724.203 197.195C719.906 197.195 716.326 199.474 713.461 204.031C710.661 208.589 709.262 214.513 709.262 221.805C709.262 233.979 714.893 240.066 726.156 240.066H734.262V244.656H710.336V302.078C710.336 307.872 711.54 311.844 713.949 313.992C716.358 316.076 720.134 317.182 725.277 317.312V322H680.551V317.312C686.15 317.182 690.023 315.945 692.172 313.602C694.385 311.258 695.492 307.417 695.492 302.078V244.656H680.551V240.066ZM774.984 187.723C772.185 189.09 770.785 191.466 770.785 194.852V302.078C770.785 307.807 771.957 311.746 774.301 313.895C776.71 316.043 780.518 317.182 785.727 317.312V322H740.902V317.312C746.241 317.182 750.082 316.01 752.426 313.797C754.77 311.583 755.941 307.677 755.941 302.078V209.207C755.941 203.217 753.467 200.223 748.52 200.223C746.436 200.223 743.897 200.743 740.902 201.785V197.098L774.984 183.719V187.723ZM873.031 297.488C858.513 315.717 844.353 324.832 830.551 324.832C820.85 324.832 812.289 320.633 804.867 312.234C797.445 303.771 793.734 293.745 793.734 282.156C793.734 268.81 798.129 256.798 806.918 246.121C815.772 235.379 826.189 230.008 838.168 230.008C847.803 230.008 855.453 233.426 861.117 240.262C866.781 247.098 869.776 255.431 870.102 265.262H807.113C806.983 267.801 806.918 269.656 806.918 270.828C806.918 282.352 809.978 291.987 816.098 299.734C822.217 307.417 829.77 311.258 838.754 311.258C849.952 311.258 861.378 304.52 873.031 291.043V297.488ZM854.086 260.379C853.305 252.697 850.863 246.74 846.762 242.508C842.66 238.276 837.81 236.16 832.211 236.16C826.352 236.16 821.111 238.471 816.488 243.094C811.866 247.651 809.034 253.413 807.992 260.379H854.086ZM959.164 298.074C944.906 315.913 931.104 324.832 917.758 324.832C909.164 324.832 900.928 321.186 893.051 313.895C885.238 306.603 881.332 296.219 881.332 282.742C881.332 268.745 886.085 256.408 895.59 245.73C905.16 235.053 916.618 229.715 929.965 229.715C938.103 229.715 946.924 231.863 956.43 236.16V261.648H949.301C949.105 253.901 946.632 247.651 941.879 242.898C937.191 238.081 931.299 235.672 924.203 235.672C915.219 235.672 908.155 239.513 903.012 247.195C897.934 254.812 895.395 263.602 895.395 273.562C895.395 284.37 898.194 293.452 903.793 300.809C909.392 308.165 916.618 311.844 925.473 311.844C930.876 311.844 936.117 310.249 941.195 307.059C946.339 303.868 952.328 298.595 959.164 291.238V298.074ZM1005.26 201.785V206.863C1001.16 207.84 999.105 212.462 999.105 220.73C999.105 226.329 999.561 230.236 1000.47 232.449C1001.45 234.663 1003.11 236.486 1005.45 237.918C1007.86 239.35 1011.05 240.066 1015.02 240.066H1023.13V244.461H999.203V307.156C999.203 309.174 999.594 310.704 1000.38 311.746C1001.22 312.788 1002.46 313.309 1004.09 313.309C1007.28 313.309 1012.03 310.704 1018.34 305.496C1019.06 304.91 1019.61 304.487 1020 304.227V309.891C1008.94 319.852 1000.11 324.832 993.539 324.832C990.479 324.832 988.168 323.66 986.605 321.316C985.108 318.908 984.359 315.359 984.359 310.672V244.461H969.418V240.066C975.147 240.066 979.216 238.927 981.625 236.648C984.034 234.37 985.238 230.366 985.238 224.637V209.891L1005.26 201.785ZM1049.01 301.59C1052.46 301.59 1055.32 302.762 1057.6 305.105C1059.88 307.384 1061.02 310.086 1061.02 313.211C1061.02 316.401 1059.85 319.135 1057.5 321.414C1055.23 323.693 1052.46 324.832 1049.2 324.832C1046.01 324.832 1043.25 323.693 1040.9 321.414C1038.62 319.135 1037.48 316.401 1037.48 313.211C1037.48 309.891 1038.66 307.124 1041 304.91C1043.41 302.697 1046.08 301.59 1049.01 301.59Z" fill="white"/>
</g>
<g filter="url(#filter3_d_208_619)">
<path d="M223.617 192.801H227.914V229.91H220.883C220.883 219.754 218.051 212.527 212.387 208.23C206.788 203.934 198.422 201.785 187.289 201.785H179.867C179.151 208.882 178.793 215.262 178.793 220.926C178.793 233.361 180.941 242.28 185.238 247.684C189.535 253.087 197.022 255.789 207.699 255.789H215.805V262.527L179.867 263.309V301.785C179.867 311.811 184.815 316.987 194.711 317.312V322H146.957V317.312C152.751 317.247 156.658 316.141 158.676 313.992C160.759 311.779 161.801 307.71 161.801 301.785V217.215C161.801 210.9 160.694 206.798 158.48 204.91C156.267 202.957 152.426 201.915 146.957 201.785V197.098H220.883C221.339 197.098 221.859 196.674 222.445 195.828C223.096 194.917 223.487 193.908 223.617 192.801ZM229.574 236.062L263.07 230.105V233.914C260.336 234.695 258.969 236.941 258.969 240.652V301.102C258.969 305.073 259.848 308.198 261.605 310.477C263.363 312.755 265.707 313.895 268.637 313.895C276.124 313.895 283.578 308.263 291 297C298.422 285.737 302.133 272.488 302.133 257.254C302.133 251.395 301.352 247.033 299.789 244.168C298.292 241.303 295.59 239.871 291.684 239.871C290.447 239.871 288.591 240.132 286.117 240.652V236.062L320.102 230.105V233.914C317.237 234.37 315.805 236.616 315.805 240.652V303.445C315.805 309.5 318.051 312.527 322.543 312.527C325.212 312.527 328.63 311.551 332.797 309.598V314.383L305.844 325.125H301.059V292.703C290.837 306.635 282.732 315.49 276.742 319.266C270.818 322.977 265.316 324.832 260.238 324.832C249.496 324.832 244.125 317.215 244.125 301.98V248.562C244.125 242.898 241.098 240.066 235.043 240.066C233.741 240.066 231.918 240.262 229.574 240.652V236.062ZM375.766 201.785V206.863C371.664 207.84 369.613 212.462 369.613 220.73C369.613 226.329 370.069 230.236 370.98 232.449C371.957 234.663 373.617 236.486 375.961 237.918C378.37 239.35 381.56 240.066 385.531 240.066H393.637V244.461H369.711V307.156C369.711 309.174 370.102 310.704 370.883 311.746C371.729 312.788 372.966 313.309 374.594 313.309C377.784 313.309 382.536 310.704 388.852 305.496C389.568 304.91 390.121 304.487 390.512 304.227V309.891C379.444 319.852 370.622 324.832 364.047 324.832C360.987 324.832 358.676 323.66 357.113 321.316C355.616 318.908 354.867 315.359 354.867 310.672V244.461H339.926V240.066C345.655 240.066 349.724 238.927 352.133 236.648C354.542 234.37 355.746 230.366 355.746 224.637V209.891L375.766 201.785ZM398.52 236.062L432.016 230.105V233.914C429.281 234.695 427.914 236.941 427.914 240.652V301.102C427.914 305.073 428.793 308.198 430.551 310.477C432.309 312.755 434.652 313.895 437.582 313.895C445.069 313.895 452.523 308.263 459.945 297C467.367 285.737 471.078 272.488 471.078 257.254C471.078 251.395 470.297 247.033 468.734 244.168C467.237 241.303 464.535 239.871 460.629 239.871C459.392 239.871 457.536 240.132 455.062 240.652V236.062L489.047 230.105V233.914C486.182 234.37 484.75 236.616 484.75 240.652V303.445C484.75 309.5 486.996 312.527 491.488 312.527C494.158 312.527 497.576 311.551 501.742 309.598V314.383L474.789 325.125H470.004V292.703C459.783 306.635 451.677 315.49 445.688 319.266C439.763 322.977 434.262 324.832 429.184 324.832C418.441 324.832 413.07 317.215 413.07 301.98V248.562C413.07 242.898 410.043 240.066 403.988 240.066C402.686 240.066 400.863 240.262 398.52 240.652V236.062ZM511.02 240.262L536.703 229.812H541V261.551C547.706 250.092 553.695 241.987 558.969 237.234C564.242 232.417 569.646 230.008 575.18 230.008C577.328 230.008 579.9 230.496 582.895 231.473V261.551H575.961C575.896 249.767 572.478 243.875 565.707 243.875C559.001 243.875 553.012 249.376 547.738 260.379C542.53 271.316 539.926 283.719 539.926 297.586C539.926 305.789 541.423 311.128 544.418 313.602C547.478 316.076 553.272 317.312 561.801 317.312V322H511.02V317.312C516.358 317.182 520.199 316.043 522.543 313.895C524.887 311.681 526.059 307.742 526.059 302.078V251.395C526.059 245.665 523.943 242.801 519.711 242.801C517.953 242.801 515.056 243.517 511.02 244.949V240.262ZM671.469 297.488C656.951 315.717 642.79 324.832 628.988 324.832C619.288 324.832 610.727 320.633 603.305 312.234C595.883 303.771 592.172 293.745 592.172 282.156C592.172 268.81 596.566 256.798 605.355 246.121C614.21 235.379 624.626 230.008 636.605 230.008C646.241 230.008 653.891 233.426 659.555 240.262C665.219 247.098 668.214 255.431 668.539 265.262H605.551C605.421 267.801 605.355 269.656 605.355 270.828C605.355 282.352 608.415 291.987 614.535 299.734C620.655 307.417 628.207 311.258 637.191 311.258C648.389 311.258 659.815 304.52 671.469 291.043V297.488ZM652.523 260.379C651.742 252.697 649.301 246.74 645.199 242.508C641.098 238.276 636.247 236.16 630.648 236.16C624.789 236.16 619.548 238.471 614.926 243.094C610.303 247.651 607.471 253.413 606.43 260.379H652.523ZM680.551 240.066H684.848C686.475 240.066 688.363 239.448 690.512 238.211C692.66 236.909 694.613 233.133 696.371 226.883C699.887 214.448 705.03 204.943 711.801 198.367C718.572 191.792 725.733 188.504 733.285 188.504C735.694 188.504 739.014 189.155 743.246 190.457V215.164H736.215C735.889 203.185 731.885 197.195 724.203 197.195C719.906 197.195 716.326 199.474 713.461 204.031C710.661 208.589 709.262 214.513 709.262 221.805C709.262 233.979 714.893 240.066 726.156 240.066H734.262V244.656H710.336V302.078C710.336 307.872 711.54 311.844 713.949 313.992C716.358 316.076 720.134 317.182 725.277 317.312V322H680.551V317.312C686.15 317.182 690.023 315.945 692.172 313.602C694.385 311.258 695.492 307.417 695.492 302.078V244.656H680.551V240.066ZM774.984 187.723C772.185 189.09 770.785 191.466 770.785 194.852V302.078C770.785 307.807 771.957 311.746 774.301 313.895C776.71 316.043 780.518 317.182 785.727 317.312V322H740.902V317.312C746.241 317.182 750.082 316.01 752.426 313.797C754.77 311.583 755.941 307.677 755.941 302.078V209.207C755.941 203.217 753.467 200.223 748.52 200.223C746.436 200.223 743.897 200.743 740.902 201.785V197.098L774.984 183.719V187.723ZM873.031 297.488C858.513 315.717 844.353 324.832 830.551 324.832C820.85 324.832 812.289 320.633 804.867 312.234C797.445 303.771 793.734 293.745 793.734 282.156C793.734 268.81 798.129 256.798 806.918 246.121C815.772 235.379 826.189 230.008 838.168 230.008C847.803 230.008 855.453 233.426 861.117 240.262C866.781 247.098 869.776 255.431 870.102 265.262H807.113C806.983 267.801 806.918 269.656 806.918 270.828C806.918 282.352 809.978 291.987 816.098 299.734C822.217 307.417 829.77 311.258 838.754 311.258C849.952 311.258 861.378 304.52 873.031 291.043V297.488ZM854.086 260.379C853.305 252.697 850.863 246.74 846.762 242.508C842.66 238.276 837.81 236.16 832.211 236.16C826.352 236.16 821.111 238.471 816.488 243.094C811.866 247.651 809.034 253.413 807.992 260.379H854.086ZM959.164 298.074C944.906 315.913 931.104 324.832 917.758 324.832C909.164 324.832 900.928 321.186 893.051 313.895C885.238 306.603 881.332 296.219 881.332 282.742C881.332 268.745 886.085 256.408 895.59 245.73C905.16 235.053 916.618 229.715 929.965 229.715C938.103 229.715 946.924 231.863 956.43 236.16V261.648H949.301C949.105 253.901 946.632 247.651 941.879 242.898C937.191 238.081 931.299 235.672 924.203 235.672C915.219 235.672 908.155 239.513 903.012 247.195C897.934 254.812 895.395 263.602 895.395 273.562C895.395 284.37 898.194 293.452 903.793 300.809C909.392 308.165 916.618 311.844 925.473 311.844C930.876 311.844 936.117 310.249 941.195 307.059C946.339 303.868 952.328 298.595 959.164 291.238V298.074ZM1005.26 201.785V206.863C1001.16 207.84 999.105 212.462 999.105 220.73C999.105 226.329 999.561 230.236 1000.47 232.449C1001.45 234.663 1003.11 236.486 1005.45 237.918C1007.86 239.35 1011.05 240.066 1015.02 240.066H1023.13V244.461H999.203V307.156C999.203 309.174 999.594 310.704 1000.38 311.746C1001.22 312.788 1002.46 313.309 1004.09 313.309C1007.28 313.309 1012.03 310.704 1018.34 305.496C1019.06 304.91 1019.61 304.487 1020 304.227V309.891C1008.94 319.852 1000.11 324.832 993.539 324.832C990.479 324.832 988.168 323.66 986.605 321.316C985.108 318.908 984.359 315.359 984.359 310.672V244.461H969.418V240.066C975.147 240.066 979.216 238.927 981.625 236.648C984.034 234.37 985.238 230.366 985.238 224.637V209.891L1005.26 201.785ZM1049.01 301.59C1052.46 301.59 1055.32 302.762 1057.6 305.105C1059.88 307.384 1061.02 310.086 1061.02 313.211C1061.02 316.401 1059.85 319.135 1057.5 321.414C1055.23 323.693 1052.46 324.832 1049.2 324.832C1046.01 324.832 1043.25 323.693 1040.9 321.414C1038.62 319.135 1037.48 316.401 1037.48 313.211C1037.48 309.891 1038.66 307.124 1041 304.91C1043.41 302.697 1046.08 301.59 1049.01 301.59Z" fill="white"/>
</g>
<defs>
<filter id="filter0_f_208_619" x="459.812" y="335.938" width="843.125" height="186" filterUnits="userSpaceOnUse" color-interpolation-filters="sRGB">
<feFlood flood-opacity="0" result="BackgroundImageFix"/>
<feBlend mode="normal" in="SourceGraphic" in2="BackgroundImageFix" result="shape"/>
<feGaussianBlur stdDeviation="25" result="effect1_foregroundBlur_208_619"/>
</filter>
<filter id="filter1_f_208_619" x="0.175781" y="0.800781" width="725.293" height="515.031" filterUnits="userSpaceOnUse" color-interpolation-filters="sRGB">
<feFlood flood-opacity="0" result="BackgroundImageFix"/>
<feBlend mode="normal" in="SourceGraphic" in2="BackgroundImageFix" result="shape"/>
<feGaussianBlur stdDeviation="50" result="effect1_foregroundBlur_208_619"/>
</filter>
<filter id="filter2_f_208_619" x="46.957" y="83.7188" width="1114.06" height="341.406" filterUnits="userSpaceOnUse" color-interpolation-filters="sRGB">
<feFlood flood-opacity="0" result="BackgroundImageFix"/>
<feBlend mode="normal" in="SourceGraphic" in2="BackgroundImageFix" result="shape"/>
<feGaussianBlur stdDeviation="50" result="effect1_foregroundBlur_208_619"/>
</filter>
<filter id="filter3_d_208_619" x="146.957" y="183.719" width="924.062" height="151.406" filterUnits="userSpaceOnUse" color-interpolation-filters="sRGB">
<feFlood flood-opacity="0" result="BackgroundImageFix"/>
<feColorMatrix in="SourceAlpha" type="matrix" values="0 0 0 0 0 0 0 0 0 0 0 0 0 0 0 0 0 0 127 0" result="hardAlpha"/>
<feOffset dx="10" dy="10"/>
<feComposite in2="hardAlpha" operator="out"/>
<feColorMatrix type="matrix" values="0 0 0 0 0.279807 0 0 0 0 0.30019 0 0 0 0 1 0 0 0 1 0"/>
<feBlend mode="normal" in2="BackgroundImageFix" result="effect1_dropShadow_208_619"/>
<feBlend mode="normal" in="SourceGraphic" in2="effect1_dropShadow_208_619" result="shape"/>
</filter>
<linearGradient id="paint0_linear_208_619" x1="506" y1="439" x2="1538" y2="439" gradientUnits="userSpaceOnUse">
<stop stop-color="white"/>
<stop offset="1" stop-color="#EDFF62"/>
</linearGradient>
</defs>
</svg>
